<?xml version="1.0" encoding="utf-8"?>
<!-- Generator: Adobe Illustrator 21.0.0, SVG Export Plug-In . SVG Version: 6.00 Build 0)  -->
<svg version="1.1" id="Layer_1" xmlns="http://www.w3.org/2000/svg" xmlns:xlink="http://www.w3.org/1999/xlink" x="0px" y="0px"
	 viewBox="0 0 129 26" style="enable-background:new 0 0 129 26;" xml:space="preserve">
<style type="text/css">
	.st0{display:none;opacity:1.000000e-02;}
	.st1{display:inline;fill:#FFFFFF;}
	.st2{fill:#FFFFFF;}
	.st3{font-family:'ArialMT';}
	.st4{font-size:14px;}
	.st5{enable-background:new    ;}
	.st6{fill:#091141;}
</style>
<g id="Mask" class="st0">
	<path id="path-1_1_" class="st1" d="M2,0h125c1.1,0,2,0.9,2,2v22c0,1.1-0.9,2-2,2H2c-1.1,0-2-0.9-2-2V2C0,0.9,0.9,0,2,0z"/>
</g>
<text transform="matrix(1 0 0 1 42.7175 18)" class="st2 st3 st4">BEGIN</text>
<g>
	<g>
		<path id="path-1_3_" class="st2" d="M1.8,0.2h125.3c0.8,0,1.5,0.7,1.5,1.5v22.5c0,0.8-0.7,1.5-1.5,1.5H1.8c-0.8,0-1.5-0.7-1.5-1.5
			V1.7C0.3,0.9,1,0.2,1.8,0.2z"/>
	</g>
	<g class="st5">
		<path class="st6" d="M55.2,16.3c-0.1,0.3-0.3,0.5-0.5,0.7c-0.2,0.2-0.4,0.3-0.7,0.4c-0.3,0.1-0.6,0.1-0.9,0.1h-2.9V10H53
			c0.3,0,0.6,0,0.9,0.1c0.3,0.1,0.5,0.2,0.7,0.4c0.2,0.2,0.3,0.4,0.5,0.6c0.1,0.2,0.2,0.5,0.2,0.8c0,0.4-0.1,0.7-0.3,1
			c-0.2,0.3-0.5,0.5-0.8,0.6c0.4,0.1,0.6,0.4,0.9,0.7c0.2,0.3,0.3,0.7,0.3,1.1C55.3,15.8,55.3,16.1,55.2,16.3z M54.3,11.5
			c-0.1-0.2-0.2-0.3-0.3-0.4c-0.1-0.1-0.3-0.2-0.5-0.2c-0.2-0.1-0.4-0.1-0.6-0.1h-2v2.6h2c0.2,0,0.4,0,0.6-0.1
			c0.2-0.1,0.3-0.1,0.5-0.2c0.1-0.1,0.2-0.2,0.3-0.4c0.1-0.2,0.1-0.4,0.1-0.6C54.4,11.8,54.4,11.6,54.3,11.5z M54.1,14.4
			C53.8,14.2,53.5,14,53,14h-2v2.7h2c0.5,0,0.8-0.1,1.1-0.4c0.3-0.2,0.4-0.6,0.4-1C54.5,15,54.4,14.7,54.1,14.4z"/>
		<path class="st6" d="M57.2,17.5V10h4.6v0.7H58v2.6h3.3v0.7H58v2.7h3.8v0.7H57.2z"/>
		<path class="st6" d="M68.3,15.9c-0.1,0.3-0.3,0.6-0.5,0.8c-0.3,0.3-0.6,0.5-0.9,0.6c-0.3,0.1-0.7,0.2-1.1,0.2
			c-0.4,0-0.7-0.1-1-0.2c-0.3-0.1-0.6-0.3-0.9-0.6c-0.2-0.2-0.3-0.4-0.4-0.5c-0.1-0.2-0.2-0.4-0.2-0.6c0-0.2-0.1-0.5-0.1-0.8
			c0-0.3,0-0.6,0-1c0-0.4,0-0.7,0-1c0-0.3,0-0.6,0.1-0.8c0-0.2,0.1-0.4,0.2-0.6c0.1-0.2,0.2-0.4,0.4-0.5c0.5-0.5,1.2-0.8,1.9-0.8
			c0.4,0,0.7,0.1,1,0.2c0.3,0.1,0.6,0.3,0.8,0.5c0.2,0.2,0.4,0.4,0.6,0.7c0.1,0.3,0.2,0.6,0.3,0.9h-0.8c-0.1-0.5-0.3-0.8-0.6-1.1
			c-0.3-0.3-0.7-0.4-1.2-0.4c-0.2,0-0.5,0-0.7,0.1c-0.2,0.1-0.4,0.2-0.6,0.4c-0.1,0.1-0.2,0.2-0.3,0.4s-0.1,0.3-0.2,0.5
			c0,0.2-0.1,0.4-0.1,0.7c0,0.3,0,0.6,0,1c0,0.4,0,0.7,0,1s0,0.5,0.1,0.7c0,0.2,0.1,0.4,0.2,0.5c0.1,0.1,0.2,0.3,0.3,0.4
			c0.2,0.2,0.4,0.3,0.6,0.4c0.2,0.1,0.5,0.1,0.7,0.1c0.3,0,0.5-0.1,0.8-0.2c0.2-0.1,0.5-0.3,0.6-0.5c0.2-0.2,0.3-0.4,0.3-0.6
			c0.1-0.2,0.1-0.5,0.1-0.8v-0.6h-1.8v-0.7h2.6v1.2C68.5,15.2,68.4,15.6,68.3,15.9z"/>
		<path class="st6" d="M70.3,17.5V10h0.8v7.5H70.3z"/>
		<path class="st6" d="M78.1,17.5l-4-6v6h-0.8V10h0.8l4,6v-6h0.8v7.5H78.1z"/>
	</g>
</g>
</svg>
