<?xml version="1.0" encoding="utf-8"?>
<!-- Generator: Adobe Illustrator 21.0.0, SVG Export Plug-In . SVG Version: 6.00 Build 0)  -->
<svg version="1.1" id="Layer_1" xmlns="http://www.w3.org/2000/svg" xmlns:xlink="http://www.w3.org/1999/xlink" x="0px" y="0px"
	 viewBox="0 0 129 26" style="enable-background:new 0 0 129 26;" xml:space="preserve">
<style type="text/css">
	.st0{display:none;fill:#FFFFFF;}
	.st1{display:none;opacity:1.000000e-02;fill:#FFFFFF;}
	.st2{fill:#FFFFFF;}
	.st3{font-family:'ArialMT';}
	.st4{font-size:14px;}
	.st5{enable-background:new    ;}
	.st6{fill:#091141;}
</style>
<title>Info Button</title>
<desc>Created with Sketch.</desc>
<path id="path-1_1_" class="st0" d="M2,0h125c1.1,0,2,0.9,2,2v22c0,1.1-0.9,2-2,2H2c-1.1,0-2-0.9-2-2V2C0,0.9,0.9,0,2,0z"/>
<path id="path-1" class="st1" d="M2,0h125c1.1,0,2,0.9,2,2v22c0,1.1-0.9,2-2,2H2c-1.1,0-2-0.9-2-2V2C0,0.9,0.9,0,2,0z"/>
<text transform="matrix(1 0 0 1 48.792 18)" class="st2 st3 st4">INFO</text>
<g>
	<g>
		<path id="path-1_2_" class="st2" d="M2.1,0.3h124.8c0.8,0,1.5,0.7,1.5,1.5v22.4c0,0.8-0.7,1.5-1.5,1.5H2.1c-0.8,0-1.5-0.7-1.5-1.5
			V1.8C0.6,1,1.3,0.3,2.1,0.3z"/>
	</g>
	<g class="st5">
		<path class="st6" d="M53.8,16.7V9.3h0.8v7.5H53.8z"/>
		<path class="st6" d="M61.5,16.7l-4-6v6h-0.8V9.3h0.8l4,6v-6h0.8v7.5H61.5z"/>
		<path class="st6" d="M65.2,10v2.7h3.3v0.7h-3.3v3.3h-0.8V9.3H69V10H65.2z"/>
		<path class="st6" d="M75.2,14c0,0.3,0,0.6-0.1,0.8c0,0.2-0.1,0.4-0.2,0.6c-0.1,0.2-0.2,0.4-0.4,0.5c-0.3,0.3-0.5,0.4-0.9,0.6
			c-0.3,0.1-0.7,0.2-1,0.2c-0.8,0-1.4-0.3-1.9-0.8c-0.2-0.2-0.3-0.4-0.4-0.5c-0.1-0.2-0.2-0.4-0.2-0.6c0-0.2-0.1-0.5-0.1-0.8
			s0-0.6,0-1c0-0.4,0-0.7,0-1s0-0.6,0.1-0.8c0-0.2,0.1-0.4,0.2-0.6c0.1-0.2,0.2-0.4,0.4-0.5c0.5-0.5,1.2-0.8,1.9-0.8
			c0.8,0,1.4,0.3,1.9,0.8c0.2,0.2,0.3,0.4,0.4,0.5c0.1,0.2,0.2,0.4,0.2,0.6c0,0.2,0.1,0.5,0.1,0.8c0,0.3,0,0.6,0,1
			C75.2,13.4,75.2,13.7,75.2,14z M74.4,12c0-0.3,0-0.5-0.1-0.7c0-0.2-0.1-0.4-0.2-0.5c-0.1-0.1-0.2-0.3-0.3-0.4
			c-0.2-0.2-0.4-0.3-0.6-0.4s-0.5-0.1-0.7-0.1c-0.2,0-0.5,0-0.7,0.1c-0.2,0.1-0.4,0.2-0.6,0.4c-0.1,0.1-0.2,0.2-0.3,0.4
			c-0.1,0.1-0.1,0.3-0.2,0.5c0,0.2-0.1,0.4-0.1,0.7c0,0.3,0,0.6,0,1c0,0.4,0,0.7,0,1c0,0.3,0,0.5,0.1,0.7c0,0.2,0.1,0.4,0.2,0.5
			c0.1,0.1,0.2,0.3,0.3,0.4c0.2,0.2,0.4,0.3,0.6,0.4c0.2,0.1,0.5,0.1,0.7,0.1c0.2,0,0.5,0,0.7-0.1s0.4-0.2,0.6-0.4
			c0.1-0.1,0.2-0.2,0.3-0.4c0.1-0.1,0.1-0.3,0.2-0.5c0-0.2,0.1-0.4,0.1-0.7c0-0.3,0-0.6,0-1C74.4,12.6,74.4,12.3,74.4,12z"/>
	</g>
</g>
</svg>
