<?xml version="1.0" encoding="UTF-8" standalone="no"?>
<svg width="1440px" height="1024px" viewBox="0 0 1440 1024" version="1.1" xmlns="http://www.w3.org/2000/svg" xmlns:xlink="http://www.w3.org/1999/xlink" style="background: #FFFFFF;">
    <!-- Generator: Sketch 49 (51002) - http://www.bohemiancoding.com/sketch -->
    <title>Desktop HD Copy</title>
    <desc>Created with Sketch.</desc>
    <defs>
        <rect id="path-1" x="0" y="4" width="22" height="22"></rect>
    </defs>
    <g id="Desktop-HD-Copy" stroke="none" stroke-width="1" fill="none" fill-rule="evenodd">
        <rect id="Rectangle-2" fill="#091141" x="37" y="141" width="1366" height="974" rx="2"></rect>
        <text id="Menu-Options" font-family="DINPro-Bold, DINPro" font-size="54" font-weight="bold" fill="#091141">
            <tspan x="553" y="97">Menu Options</tspan>
        </text>
        <g id="Group-11" transform="translate(548.000000, 212.000000)">
            <g id="Group-6" transform="translate(1.000000, 110.000000)">
                <rect id="Rectangle" fill="#FFFFFF" x="0" y="0" width="343.581395" height="63.8245614" rx="2"></rect>
                <text id="Create" font-family="DINPro-Regular, DINPro" font-size="32" font-weight="normal" fill="#132C4A">
                    <tspan x="124" y="44">Create</tspan>
                </text>
                <g id="Group-2" transform="translate(14.000000, 15.000000)">
                    <text id="*" font-family="Montserrat-Medium, Montserrat" font-size="24" font-weight="400" fill="#132C4A">
                        <tspan x="14" y="31">*</tspan>
                    </text>
                    <circle id="Oval-3" stroke="#132C4A" stroke-width="2" cx="18" cy="18" r="18"></circle>
                </g>
            </g>
            <g id="Group-7" transform="translate(1.000000, 220.000000)">
                <rect id="Rectangle" fill="#FFFFFF" x="0" y="0" width="343.581395" height="63.8245614" rx="2"></rect>
                <text id="Supply-Chain" font-family="DINPro-Regular, DINPro" font-size="32" font-weight="normal" fill="#132C4A">
                    <tspan x="79" y="44">Supply Chain</tspan>
                </text>
                <g id="connections" transform="translate(16.000000, 12.000000)" fill="#132C4A" fill-rule="nonzero">
                    <path d="M19.9999411,29 C17.2428893,29 15,31.2430072 15,33.9999411 C15,36.7568749 17.2428893,39 19.9999411,39 C22.7569928,39 25,36.7569928 25,33.9999411 C25,31.2428893 22.7569928,29 19.9999411,29 Z M19.9999411,37.5856407 C18.0229735,37.5856407 16.4144772,35.9771444 16.4144772,34.0000589 C16.4144772,32.0229735 18.0229735,30.414595 19.9999411,30.414595 C21.9770265,30.414595 23.5855228,32.0230913 23.5855228,34.0000589 C23.5855228,35.9770265 21.9771444,37.5856407 19.9999411,37.5856407 Z" id="Shape"></path>
                    <path d="M8.85878357,14 C9.07848445,14 9.29832846,13.9251234 9.4659309,13.7754981 L14.58718,9.20368359 C15.6904076,10.212345 17.2284569,10.8402347 18.9286698,10.8402347 C22.2764247,10.8402347 25,8.40879097 25,5.42024515 C25,2.43169933 22.2762815,0 18.9285267,0 C15.5807719,0 12.8573397,2.43144377 12.8573397,5.42011737 C12.8573397,6.33371362 13.1128224,7.19466628 13.5619569,7.95058731 L8.25163624,12.6911935 C7.91614511,12.990572 7.91614511,13.4759919 8.25149311,13.7753703 C8.41923867,13.9251234 8.63893955,14 8.85878357,14 Z M18.9285267,1.53330839 C21.3292061,1.53330839 23.2823255,3.27693557 23.2823255,5.42011737 C23.2823255,7.56329917 21.3292061,9.30679858 18.9285267,9.30679858 C16.5279904,9.30679858 14.574871,7.56317139 14.574871,5.42011737 C14.574871,3.27706335 16.5279904,1.53330839 18.9285267,1.53330839 Z" id="Shape"></path>
                    <path d="M14.7540513,28.6363886 L9.80407389,23.9281881 C11.0705425,22.8916996 11.8748228,21.3578032 11.8748228,19.6476305 C11.8748228,16.5335053 9.21143153,14 5.93748141,14 C2.66353129,14 0,16.5335053 0,19.6476305 C0,22.7617558 2.66367126,25.2952611 5.93748141,25.2952611 C6.79677084,25.2952611 7.61322877,25.1193842 8.35116229,24.8055752 L13.5663871,29.7660745 C13.7302945,29.9219804 13.9452919,30 14.1601492,30 C14.3750066,30 14.5900039,29.9219804 14.7539113,29.7660745 C15.0820062,29.4541294 15.0820062,28.9483337 14.7540513,28.6363886 Z M1.36363636,19.3333333 C1.36363636,17.1277381 3.19885327,15.3333333 5.4546127,15.3333333 C7.71023764,15.3333333 9.54545455,17.1277381 9.54545455,19.3333333 C9.54545455,21.5389285 7.71037213,23.3333333 5.4546127,23.3333333 C3.19885327,23.3333333 1.36363636,21.5389285 1.36363636,19.3333333 Z" id="Shape"></path>
                </g>
            </g>
            <g id="Group-9" transform="translate(0.000000, 330.000000)">
                <rect id="Rectangle" fill="#FFFFFF" x="0" y="0" width="343.581395" height="63.8245614" rx="2"></rect>
                <text id="Digital-Viewer" font-family="DINPro-Regular, DINPro" font-size="32" font-weight="normal" fill="#132C4A">
                    <tspan x="73.42" y="44">Digital Viewer</tspan>
                </text>
                <g id="Group" transform="translate(16.000000, 18.000000)" fill="#132C4A" fill-rule="nonzero">
                    <path d="M27.4302033,0 L0.569796705,0 C0.255173958,0 0,0.255173958 0,0.569796705 L0,27.4302033 C0,27.744826 0.255173958,28 0.569796705,28 L23.4016456,28 C23.7162684,28 23.9714423,27.744826 23.9714423,27.4302033 C23.9714423,27.1155805 23.7162684,26.8604066 23.4016456,26.8604066 L1.13959341,26.8604066 L1.13959341,1.13959341 L26.8604066,1.13959341 L26.8604066,27.4302033 C26.8604066,27.744826 27.1155805,28 27.4302033,28 C27.744826,28 28,27.744826 28,27.4302033 L28,0.569796705 C28,0.255173958 27.744826,0 27.4302033,0 Z" id="Shape"></path>
                    <path d="M6,7 C4.89713043,7 4,7.89713043 4,9 C4,10.1028696 4.89713043,11 6,11 C7.10286957,11 8,10.1028696 8,9 C8,7.89713043 7.10286957,7 6,7 Z M6,9.95652174 C5.4726087,9.95652174 5.04347826,9.5273913 5.04347826,9 C5.04347826,8.4726087 5.4726087,8.04347826 6,8.04347826 C6.5273913,8.04347826 6.95652174,8.4726087 6.95652174,9 C6.95652174,9.5273913 6.52747826,9.95652174 6,9.95652174 Z" id="Shape"></path>
                    <path d="M25.4078947,7 L11.5921053,7 C11.2651645,7 11,7.22391667 11,7.5 C11,7.77608333 11.2651645,8 11.5921053,8 L25.4078947,8 C25.7348355,8 26,7.77608333 26,7.5 C26,7.22391667 25.7349342,7 25.4078947,7 Z" id="Shape"></path>
                    <path d="M6,13 C5.71191304,13 5.47826087,13.2336522 5.47826087,13.5217391 C5.47826087,13.8098261 5.71191304,14.0434783 6,14.0434783 C6.5273913,14.0434783 6.95652174,14.4726087 6.95652174,15 C6.95652174,15.5273913 6.5273913,15.9565217 6,15.9565217 C5.4726087,15.9565217 5.04347826,15.5273913 5.04347826,15 C5.04347826,14.711913 4.80982609,14.4782609 4.52173913,14.4782609 C4.23365217,14.4782609 4,14.711913 4,15 C4,16.1028696 4.89713043,17 6,17 C7.10286957,17 8,16.1028696 8,15 C8,13.8971304 7.10286957,13 6,13 Z" id="Shape"></path>
                    <path d="M25.4078947,15 L11.5921053,15 C11.2651645,15 11,15.2239167 11,15.5 C11,15.7760833 11.2651645,16 11.5921053,16 L25.4078947,16 C25.7348355,16 26,15.7760833 26,15.5 C26,15.2239167 25.7349342,15 25.4078947,15 Z" id="Shape"></path>
                    <path d="M6,20 C4.89713043,20 4,20.8971304 4,22 C4,23.1028696 4.89713043,24 6,24 C7.10286957,24 8,23.1028696 8,22 C8,20.8971304 7.10286957,20 6,20 Z M6,22.9565217 C5.4726087,22.9565217 5.04347826,22.5273913 5.04347826,22 C5.04347826,21.4726087 5.4726087,21.0434783 6,21.0434783 C6.5273913,21.0434783 6.95652174,21.4726087 6.95652174,22 C6.95652174,22.5273913 6.52747826,22.9565217 6,22.9565217 Z" id="Shape"></path>
                    <path d="M25.4078947,21 L11.5921053,21 C11.2651645,21 11,21.2239167 11,21.5 C11,21.7760833 11.2651645,22 11.5921053,22 L25.4078947,22 C25.7348355,22 26,21.7760833 26,21.5 C26,21.2239167 25.7349342,21 25.4078947,21 Z" id="Shape"></path>
                </g>
            </g>
            <g id="Group-10" transform="translate(1.000000, 440.000000)">
                <rect id="Rectangle" fill="#FFFFFF" x="0" y="0" width="343.581395" height="63.8245614" rx="2"></rect>
                <text id="Track" font-family="DINPro-Regular, DINPro" font-size="32" font-weight="normal" fill="#132C4A">
                    <tspan x="131.164" y="44">Track</tspan>
                </text>
                <g id="Group-4" transform="translate(17.000000, 19.000000)">
                    <rect id="Rectangle-3-Copy" stroke="#132C4A" x="4.5" y="0.5" width="21" height="21"></rect>
                    <g id="Rectangle-3">
                        <use fill="#132C4A" fill-rule="evenodd" xlink:href="#path-1"></use>
                        <rect stroke="#132C4A" stroke-width="1" x="0.5" y="4.5" width="21" height="21"></rect>
                    </g>
                </g>
            </g>
            <g id="Group-8" transform="translate(1.000000, 0.000000)">
                <rect id="Rectangle" fill="#FFFFFF" x="0" y="0" width="344" height="64" rx="2"></rect>
                <text id="Validate" font-family="DINPro-Regular, DINPro" font-size="32" font-weight="normal" fill="#132C4A">
                    <tspan x="115" y="45">Validate</tspan>
                </text>
                <g id="Group-3" transform="translate(8.000000, 13.000000)">
                    <g id="Group-4-Copy" transform="translate(12.000000, 0.000000)">
                        <text id="HIPR" font-family="AvenirNextCondensed-BoldItalic, Avenir Next Condensed" font-size="11" font-style="italic" font-weight="bold" line-spacing="28" letter-spacing="-0.280000001" fill="#132C4A">
                            <tspan x="9.47368421" y="15.5">HIP</tspan>
                            <tspan x="24.0666842" y="15.5">R</tspan>
                        </text>
                        <ellipse id="Oval-3" stroke="#132C4A" stroke-width="2" cx="18" cy="18.5535714" rx="18" ry="17.9821429"></ellipse>
                    </g>
                    <g id="Group-5" transform="translate(12.689212, 13.912982) rotate(-23.000000) translate(-12.689212, -13.912982) translate(2.217824, 6.520436)" stroke="#132C4A" stroke-linecap="square">
                        <path d="M6.0276215,2.93741347 L16.7433931,8.81224042" id="Line"></path>
                        <path d="M3.34867861,5.28734425 L14.0644502,11.1621712" id="Line-Copy"></path>
                        <path d="M2.00920717,6.46230964 L12.7249787,12.3371366" id="Line-Copy-2"></path>
                        <path d="M0.669735722,7.63727503 L11.3855073,13.512102" id="Line-Copy-4"></path>
                        <path d="M4.68815005,4.11237886 L15.4039216,9.98720581" id="Line-Copy-5"></path>
                        <path d="M7.36709294,1.76244808 L18.0828645,7.63727503" id="Line-Copy-6"></path>
                        <path d="M8.70656439,0.587482695 L19.4223359,6.46230964" id="Line-Copy-3"></path>
                    </g>
                </g>
            </g>
        </g>
    </g>
</svg>