<?xml version="1.0" encoding="UTF-8" standalone="no"?>
<svg width="1440px" height="1024px" viewBox="0 0 1440 1024" version="1.1" xmlns="http://www.w3.org/2000/svg" xmlns:xlink="http://www.w3.org/1999/xlink" style="background: #FFFFFF;">
    <!-- Generator: Sketch 49 (51002) - http://www.bohemiancoding.com/sketch -->
    <title>Desktop HD Copy 4</title>
    <desc>Created with Sketch.</desc>
    <defs>
        <rect id="path-1" x="0" y="0" width="343.581395" height="63.8245614" rx="2"></rect>
    </defs>
    <g id="Desktop-HD-Copy-4" stroke="none" stroke-width="1" fill="none" fill-rule="evenodd">
        <rect id="Rectangle-2" fill="#091141" x="37" y="141" width="1366" height="974" rx="2"></rect>
        <text id="AGLD" font-family="DINPro-Bold, DINPro" font-size="54" font-weight="bold" fill="#091141">
            <tspan x="652.757" y="97">AGLD</tspan>
        </text>
        <g id="Group-4" transform="translate(549.000000, 847.000000)">
            <g id="Rectangle">
                <use fill="#FFFFFF" fill-rule="evenodd" xlink:href="#path-1"></use>
                <rect stroke="#F3C736" stroke-width="2" x="-1" y="-1" width="345.581395" height="65.8245614" rx="2"></rect>
            </g>
            <text id="SUBMIT" font-family="DINPro-Regular, DINPro" font-size="32" font-weight="normal" fill="#132C4A">
                <tspan x="114.14" y="44">SUBMIT</tspan>
            </text>
        </g>
        <g id="Group" transform="translate(99.000000, 195.000000)" fill="#FFFFFF" fill-rule="nonzero">
            <path d="M26.8245614,10.622807 C26.8245614,10.0028304 26.394712,9.5 25.8647189,9.5 L1.95984246,9.5 C1.42968947,9.5 1,10.0028304 1,10.622807 C1,11.2427836 1.42968947,11.745614 1.95984246,11.745614 L25.8647189,11.745614 C26.394712,11.745614 26.8245614,11.2427836 26.8245614,10.622807 Z" id="Shape" transform="translate(13.912281, 10.622807) rotate(180.000000) translate(-13.912281, -10.622807) "></path>
            <path d="M0.314313569,19.3360203 C0.047275594,19.6609928 0.047275594,20.1879116 0.314313569,20.5128842 C0.447718632,20.6753011 0.622705974,20.7565789 0.797579392,20.7565789 C0.972452809,20.7565789 1.14744015,20.6753011 1.28084521,20.5128842 L8.91375661,11.2200282 C9.18079458,10.8950557 9.18079458,10.3681369 8.91375661,10.0431643 L1.28084521,0.750308367 C1.01403509,0.425335807 0.581009771,0.425335807 0.314313569,0.750308367 C0.047275594,1.07528093 0.047275594,1.60219973 0.314313569,1.92717229 L7.46384521,10.6315269 L0.314313569,19.3360203 Z" id="Shape" transform="translate(4.614035, 10.631579) rotate(180.000000) translate(-4.614035, -10.631579) "></path>
        </g>
        <g id="Group-Copy" transform="translate(635.000000, 183.000000)" fill="#FFFFFF" font-family="DINPro-Bold, DINPro" font-size="36" font-weight="bold">
            <text id="Originator">
                <tspan x="0.602" y="37">Originator</tspan>
            </text>
        </g>
        <g id="Group-2" transform="translate(570.000000, 302.000000)"></g>
        <g id="Group-6" transform="translate(548.000000, 302.000000)">
            <rect id="Rectangle" fill="#FFFFFF" x="0" y="86" width="344" height="64" rx="2"></rect>
            <rect id="Rectangle" fill="#FFFFFF" x="0" y="0" width="344" height="64" rx="2"></rect>
            <text id="Take-Photo" font-family="DINPro-Regular, DINPro" font-size="32" font-weight="normal" fill="#132C4A">
                <tspan x="92.932" y="126">Take Photo</tspan>
            </text>
            <text id="Upload-Image" font-family="DINPro-Regular, DINPro" font-size="32" font-weight="normal" fill="#132C4A">
                <tspan x="73.84" y="42">Upload Image</tspan>
            </text>
            <g id="Group-3" transform="translate(18.000000, 16.000000)" fill="#091141" fill-rule="nonzero">
                <circle id="Oval" cx="13.5" cy="10.5" r="2.5"></circle>
                <path d="M33.870229,19.5172414 C32.7022901,18.4137931 31.2251908,17.6896552 29.610687,17.4827586 L29.610687,4.86206897 C29.610687,3.51724138 29.0610687,2.31034483 28.2022901,1.4137931 C27.3091603,0.517241379 26.1068702,0 24.7671756,0 L4.84351145,0 C3.50381679,0 2.30152672,0.551724138 1.40839695,1.4137931 C0.515267176,2.31034483 0,3.51724138 0,4.86206897 L0,20.7586207 L0,22.2413793 L0,25.4482759 C0,26.7931034 0.549618321,28 1.40839695,28.8965517 C2.30152672,29.7931034 3.50381679,30.3103448 4.84351145,30.3103448 L24.1145038,30.3103448 C25.3854962,31.3448276 26.9656489,32 28.7175573,32 C30.7442748,32 32.5648855,31.1724138 33.870229,29.862069 C35.1755725,28.5517241 36,26.7241379 36,24.6896552 C36,22.6551724 35.1755725,20.8275862 33.870229,19.5172414 Z M1.82061069,4.86206897 C1.82061069,4.03448276 2.16412214,3.27586207 2.71374046,2.75862069 C3.26335878,2.20689655 4.01908397,1.86206897 4.84351145,1.86206897 L24.7671756,1.86206897 C25.5916031,1.86206897 26.3473282,2.20689655 26.8969466,2.75862069 C27.4465649,3.31034483 27.7900763,4.06896552 27.7900763,4.89655172 L27.7900763,15.6551724 L22.7061069,10.5517241 C22.3625954,10.2068966 21.778626,10.1724138 21.4007634,10.5517241 L13.740458,18.2758621 L8.55343511,13.0344828 C8.20992366,12.6896552 7.6259542,12.6551724 7.2480916,13.0344828 L1.82061069,18.5517241 L1.82061069,4.86206897 Z M4.80916031,28.5517241 L4.80916031,28.4827586 C3.98473282,28.4827586 3.22900763,28.137931 2.67938931,27.5862069 C2.16412214,27.0344828 1.82061069,26.2758621 1.82061069,25.4482759 L1.82061069,22.2413793 L1.82061069,21.1724138 L7.90076336,15.0344828 L13.0877863,20.2413793 C13.4312977,20.5862069 14.0152672,20.5862069 14.3931298,20.2413793 L22.0534351,12.5172414 L27.0687023,17.5862069 C26.9656489,17.6206897 26.8625954,17.6551724 26.759542,17.6896552 C26.6221374,17.7241379 26.4847328,17.7586207 26.3129771,17.8275862 C26.1755725,17.862069 26.0381679,17.9310345 25.9007634,17.9655172 C25.7977099,18 25.7290076,18.0344828 25.6259542,18.1034483 C25.4885496,18.1724138 25.3854962,18.2068966 25.2824427,18.2758621 C25.110687,18.3793103 24.9389313,18.4827586 24.7671756,18.5862069 C24.6641221,18.6551724 24.5954198,18.6896552 24.4923664,18.7586207 C24.4236641,18.7931034 24.389313,18.8275862 24.3206107,18.862069 C24.0114504,19.0689655 23.7366412,19.3103448 23.4961832,19.5862069 C22.1908397,20.8965517 21.3664122,22.7241379 21.3664122,24.7586207 C21.3664122,25.2758621 21.4351145,25.7586207 21.5381679,26.2758621 C21.5725191,26.4137931 21.6068702,26.5172414 21.6412214,26.6551724 C21.7442748,27 21.8473282,27.3448276 21.9847328,27.6896552 L21.9847328,27.7241379 C22.1221374,28 22.259542,28.3103448 22.4312977,28.5517241 L4.80916031,28.5517241 Z M32.5305344,28.5517241 C31.5343511,29.5517241 30.1946565,30.137931 28.6832061,30.137931 C27.240458,30.137931 25.9007634,29.5517241 24.9389313,28.6206897 C24.8015267,28.4827586 24.6641221,28.3103448 24.5267176,28.1724138 C24.4236641,28.0689655 24.3206107,27.9310345 24.2175573,27.8275862 C24.0801527,27.6551724 23.9770992,27.4482759 23.8740458,27.2413793 C23.8053435,27.1034483 23.7366412,27 23.6679389,26.862069 C23.5992366,26.6896552 23.5305344,26.4827586 23.4961832,26.2758621 C23.4618321,26.137931 23.3931298,25.9655172 23.3587786,25.8275862 C23.2900763,25.4827586 23.2557252,25.1034483 23.2557252,24.7241379 C23.2557252,23.2068966 23.8740458,21.862069 24.8358779,20.862069 C25.7977099,19.862069 27.1717557,19.2758621 28.6832061,19.2758621 C30.1946565,19.2758621 31.5343511,19.8965517 32.5305344,20.862069 C33.5267176,21.862069 34.110687,23.2068966 34.110687,24.7241379 C34.110687,26.2068966 33.4923664,27.5517241 32.5305344,28.5517241 Z" id="Shape"></path>
                <path d="M29.2514124,20.279476 C29.1723164,20.209607 29.0536723,20.139738 28.8954802,20.069869 C28.7768362,20.0349345 28.6581921,20 28.539548,20 C28.5,20 28.5,20 28.5,20 C28.460452,20 28.460452,20 28.460452,20 C28.3418079,20 28.2231638,20.0349345 28.1045198,20.069869 C27.9858757,20.1048035 27.8672316,20.1746725 27.7485876,20.279476 L25.2966102,22.4454148 C24.9011299,22.7947598 24.9011299,23.3886463 25.2966102,23.7729258 C25.6920904,24.1222707 26.3644068,24.1222707 26.799435,23.7729258 L27.4322034,23.2139738 L27.4322034,27.0567686 C27.4322034,27.580786 27.9067797,28 28.5,28 C29.0932203,28 29.5677966,27.580786 29.5677966,27.0567686 L29.5677966,23.2139738 L30.200565,23.7729258 C30.5960452,24.1222707 31.2683616,24.1222707 31.7033898,23.7729258 C32.0988701,23.4235808 32.0988701,22.8296943 31.7033898,22.4454148 L29.2514124,20.279476 Z" id="Shape"></path>
            </g>
            <g id="Group-5" transform="translate(19.000000, 104.000000)" fill="#091141" fill-rule="nonzero">
                <circle id="Oval" cx="16" cy="16" r="5"></circle>
                <path d="M11.2,0 L8.32,3.22222222 L3.2,3.22222222 C1.44,3.22222222 0,4.67222222 0,6.44444444 L0,25.7777778 C0,27.55 1.44,29 3.2,29 L28.8,29 C30.56,29 32,27.55 32,25.7777778 L32,6.44444444 C32,4.67222222 30.56,3.22222222 28.8,3.22222222 L23.68,3.22222222 L20.8,0 L11.2,0 Z M16,24.1666667 C11.52,24.1666667 8,20.6222222 8,16.1111111 C8,11.6 11.52,8.05555556 16,8.05555556 C20.48,8.05555556 24,11.6 24,16.1111111 C24,20.6222222 20.48,24.1666667 16,24.1666667 Z" id="Shape"></path>
            </g>
        </g>
    </g>
</svg>