<?xml version="1.0" encoding="UTF-8" standalone="no"?>
<svg width="1440px" height="1024px" viewBox="0 0 1440 1024" version="1.1" xmlns="http://www.w3.org/2000/svg" xmlns:xlink="http://www.w3.org/1999/xlink" style="background: #FFFFFF;">
    <!-- Generator: Sketch 49 (51002) - http://www.bohemiancoding.com/sketch -->
    <title>Desktop HD Copy 6</title>
    <desc>Created with Sketch.</desc>
    <defs>
        <rect id="path-1" x="0" y="0" width="343.581395" height="63.8245614" rx="2"></rect>
    </defs>
    <g id="Desktop-HD-Copy-6" stroke="none" stroke-width="1" fill="none" fill-rule="evenodd">
        <rect id="Rectangle-2" fill="#091141" x="37" y="141" width="1366" height="974" rx="2"></rect>
        <text id="AGLD" font-family="DINPro-Bold, DINPro" font-size="54" font-weight="bold" fill="#091141">
            <tspan x="652.757" y="97">AGLD</tspan>
        </text>
        <g id="Group-4" transform="translate(549.000000, 847.000000)">
            <g id="Rectangle">
                <use fill="#FFFFFF" fill-rule="evenodd" xlink:href="#path-1"></use>
                <rect stroke="#F3C736" stroke-width="2" x="-1" y="-1" width="345.581395" height="65.8245614" rx="2"></rect>
            </g>
            <text id="SUBMIT" font-family="DINPro-Regular, DINPro" font-size="32" font-weight="normal" fill="#132C4A">
                <tspan x="114.14" y="44">SUBMIT</tspan>
            </text>
        </g>
        <g id="Group" transform="translate(99.000000, 195.000000)" fill="#FFFFFF" fill-rule="nonzero">
            <path d="M26.8245614,10.622807 C26.8245614,10.0028304 26.394712,9.5 25.8647189,9.5 L1.95984246,9.5 C1.42968947,9.5 1,10.0028304 1,10.622807 C1,11.2427836 1.42968947,11.745614 1.95984246,11.745614 L25.8647189,11.745614 C26.394712,11.745614 26.8245614,11.2427836 26.8245614,10.622807 Z" id="Shape" transform="translate(13.912281, 10.622807) rotate(180.000000) translate(-13.912281, -10.622807) "></path>
            <path d="M0.314313569,19.3360203 C0.047275594,19.6609928 0.047275594,20.1879116 0.314313569,20.5128842 C0.447718632,20.6753011 0.622705974,20.7565789 0.797579392,20.7565789 C0.972452809,20.7565789 1.14744015,20.6753011 1.28084521,20.5128842 L8.91375661,11.2200282 C9.18079458,10.8950557 9.18079458,10.3681369 8.91375661,10.0431643 L1.28084521,0.750308367 C1.01403509,0.425335807 0.581009771,0.425335807 0.314313569,0.750308367 C0.047275594,1.07528093 0.047275594,1.60219973 0.314313569,1.92717229 L7.46384521,10.6315269 L0.314313569,19.3360203 Z" id="Shape" transform="translate(4.614035, 10.631579) rotate(180.000000) translate(-4.614035, -10.631579) "></path>
        </g>
        <g id="Group-Copy" transform="translate(635.000000, 183.000000)" fill="#FFFFFF" font-family="DINPro-Bold, DINPro" font-size="36" font-weight="bold">
            <text id="Originator">
                <tspan x="0.602" y="37">Originator</tspan>
            </text>
        </g>
        <g id="Group-2" transform="translate(570.000000, 302.000000)"></g>
        <g id="Group-6" transform="translate(548.000000, 302.000000)">
            <rect id="Rectangle" fill="#FFFFFF" x="0" y="86" width="344" height="64" rx="2"></rect>
            <rect id="Rectangle" fill="#FFFFFF" x="0" y="0" width="344" height="64" rx="2"></rect>
            <text id="Documents" font-family="DINPro-Regular, DINPro" font-size="32" font-weight="normal" fill="#132C4A">
                <tspan x="91.636" y="126">Documents</tspan>
            </text>
            <rect id="Rectangle-Copy" fill="#FFFFFF" x="0" y="171" width="344" height="64" rx="2"></rect>
            <text id="Metrics" font-family="DINPro-Regular, DINPro" font-size="32" font-weight="normal" fill="#132C4A">
                <tspan x="119.092" y="211">Metrics</tspan>
            </text>
            <rect id="Rectangle-Copy-2" fill="#FFFFFF" x="0" y="257" width="344" height="64" rx="2"></rect>
            <text id="Edit-T---Sets" font-family="DINPro-Regular, DINPro" font-size="32" font-weight="normal" fill="#132C4A">
                <tspan x="86.148" y="297">Edit T - Sets</tspan>
            </text>
            <text id="Camera" font-family="DINPro-Regular, DINPro" font-size="32" font-weight="normal" fill="#132C4A">
                <tspan x="115.696" y="42">Camera</tspan>
            </text>
            <g id="Group-5" transform="translate(19.000000, 20.000000)" fill="#091141" fill-rule="nonzero">
                <circle id="Oval" cx="16" cy="16" r="5"></circle>
                <path d="M11.2,0 L8.32,3.22222222 L3.2,3.22222222 C1.44,3.22222222 0,4.67222222 0,6.44444444 L0,25.7777778 C0,27.55 1.44,29 3.2,29 L28.8,29 C30.56,29 32,27.55 32,25.7777778 L32,6.44444444 C32,4.67222222 30.56,3.22222222 28.8,3.22222222 L23.68,3.22222222 L20.8,0 L11.2,0 Z M16,24.1666667 C11.52,24.1666667 8,20.6222222 8,16.1111111 C8,11.6 11.52,8.05555556 16,8.05555556 C20.48,8.05555556 24,11.6 24,16.1111111 C24,20.6222222 20.48,24.1666667 16,24.1666667 Z" id="Shape"></path>
            </g>
        </g>
        <text id="Originator" font-family="DINPro-Regular, DINPro" font-size="18" font-weight="normal" fill="#FFFFFF">
            <tspan x="680.081" y="736">Originator</tspan>
        </text>
        <text id="Sun-Apr-1-23:33:00-(" font-family="DINPro-Bold, DINPro" font-size="18" font-weight="bold" fill="#F3C736">
            <tspan x="598.118" y="819">Sun Apr 1 23:33:00 (6:00 GMT)</tspan>
        </text>
        <text id="Transaction-Review-A" font-family="DINPro-Bold, DINPro" font-size="22" font-weight="bold">
            <tspan x="623.1" y="668" fill="#D0021B">Transaction Review</tspan>
            <tspan x="693.423" y="696" font-family="DINPro-Regular, DINPro" font-weight="normal" fill="#0076FF">ALGD</tspan>
        </text>
        <text id="HERCid-:-003" font-family="DINPro-Bold, DINPro" font-size="24" font-weight="bold" fill="#FAFAFA">
            <tspan x="650.376" y="276">HERCid : 003</tspan>
        </text>
        <g id="Group-7" transform="translate(570.000000, 403.000000)" fill="#091141" fill-rule="nonzero">
            <path d="M34.0982164,11.014541 C32.8987665,9.81510742 30.947037,9.81517578 29.747177,11.0148145 C29.378147,11.3841602 27.0219749,13.7420801 26.6620374,14.102334 L26.6620374,5.97638672 C26.6620374,5.15470703 26.3420246,4.38224609 25.7609289,3.80125977 L22.8605778,0.900976563 C22.2795505,0.319921875 21.5069667,0 20.685229,0 L3.07638893,0 C1.38006808,0 0,1.3799707 0,3.07617188 L0,31.9238281 C0,33.6200293 1.38006808,35 3.07638893,35 L23.5856485,35 C25.2819694,35 26.6620374,33.6200293 26.6620374,31.9238281 L26.6620374,22.8068066 L34.098148,15.3649316 C35.3004692,14.1627637 35.3007427,12.2168457 34.0982164,11.014541 Z M20.5093279,2.05078125 C20.7030721,2.05078125 21.076409,2.0172168 21.4103681,2.35108398 L24.3107875,5.25136719 C24.6362011,5.57682617 24.6111798,5.93345703 24.6111798,6.15234375 L20.5093279,6.15234375 L20.5093279,2.05078125 Z M24.6111115,31.9238281 C24.6111115,32.4892285 24.1511571,32.9492188 23.5856485,32.9492188 L3.07638893,32.9492188 C2.51094865,32.9492188 2.05092596,32.4892285 2.05092596,31.9238281 L2.05092596,3.07617188 C2.05092596,2.51077148 2.51094865,2.05078125 3.07638893,2.05078125 L18.4583336,2.05078125 L18.4583336,7.17773438 C18.4583336,7.74402344 18.9174676,8.203125 19.4837966,8.203125 L24.6111115,8.203125 L24.6111115,16.1548926 C24.6111115,16.1548926 21.5857222,19.182666 21.5855855,19.1827344 L20.1360594,20.6322266 C20.0235319,20.7447461 19.9386236,20.8820117 19.8883075,21.0330176 L18.4380294,25.3834082 C18.315179,25.7518652 18.4110939,26.158125 18.6857813,26.4327246 C18.9608105,26.7077344 19.3672356,26.8031641 19.7351717,26.680459 L24.0858693,25.2303516 C24.2368859,25.1800391 24.3741612,25.0952051 24.4866886,24.9826172 L24.6111115,24.8582031 L24.6111115,31.9238281 Z M22.3113398,21.3573145 L23.7615496,22.8074219 L23.2075945,23.3613379 L21.032314,24.0863574 L21.7573847,21.9111621 L22.3113398,21.3573145 Z M25.2114859,21.3569727 L23.7612761,19.9068652 C24.5335181,19.1340625 27.9632816,15.7016016 28.6906767,14.9736426 L30.1408864,16.42375 L25.2114859,21.3569727 Z M32.6476648,13.9150977 L31.5905492,14.9730273 L30.1403395,13.5229199 L31.1977969,12.4646484 C31.5978642,12.0648145 32.2482812,12.0648828 32.648075,12.4646484 C33.0478005,12.8645508 33.0499198,13.5128027 32.6476648,13.9150977 Z" id="Shape"></path>
            <path d="M19,10 L5,10 C4.44773333,10 4,10.6716 4,11.5 C4,12.3284 4.44773333,13 5,13 L19,13 C19.5522667,13 20,12.3284 20,11.5 C20,10.6716 19.5522667,10 19,10 Z" id="Shape"></path>
            <path d="M15,15 L5,15 C4.44773333,15 4,15.6716 4,16.5 C4,17.3284 4.44773333,18 5,18 L15,18 C15.5522667,18 16,17.3284 16,16.5 C16,15.6716 15.5522667,15 15,15 Z" id="Shape"></path>
            <path d="M15,19 L5,19 C4.44773333,19 4,19.6716 4,20.5 C4,21.3284 4.44773333,22 5,22 L15,22 C15.5522667,22 16,21.3284 16,20.5 C16,19.6716 15.5522667,19 15,19 Z" id="Shape"></path>
            <path d="M15,23 L5,23 C4.44773333,23 4,23.6716 4,24.5 C4,25.3284 4.44773333,26 5,26 L15,26 C15.5522667,26 16,25.3284 16,24.5 C16,23.6716 15.5522667,23 15,23 Z" id="Shape"></path>
            <path d="M18.125,29 L12.875,29 C12.3917667,29 12,29.6716 12,30.5 C12,31.3284 12.3917667,32 12.875,32 L18.125,32 C18.6082333,32 19,31.3284 19,30.5 C19,29.6716 18.6082333,29 18.125,29 Z" id="Shape"></path>
        </g>
        <g id="Group-8" transform="translate(570.000000, 488.000000)" fill="#091141" fill-rule="nonzero">
            <path d="M30.6613333,14.4 L28.8,14.4 L28.8,11.0570667 C28.8,10.2538667 28.1461333,9.6 27.3429333,9.6 L26.6666667,9.6 L26.6666667,0 L5.33333333,0 L5.33333333,1.06666667 L3.73333333,1.06666667 L3.73333333,2.13333333 L2.13333333,2.13333333 L2.13333333,5.86666667 L1.45706667,5.86666667 C0.653866667,5.86666667 0,6.52053333 0,7.32373333 L0,30.6234667 L0.0032,30.6234667 C0.000533333333,30.9237333 0.0938666667,31.2176 0.2816,31.4634667 C0.542933333,31.8048 0.938666667,32 1.368,32 L25.2394667,32 C25.8565333,32 26.3994667,31.584 26.5456,31.0330667 L32,16.0794667 L32,15.9850667 C32,15.0666667 31.4368,14.4 30.6613333,14.4 Z M27.3429333,10.6666667 C27.5584,10.6666667 27.7333333,10.8416 27.7333333,11.0570667 L27.7333333,14.4 L26.6666667,14.4 L26.6666667,10.6666667 L27.3429333,10.6666667 Z M25.6,1.06666667 L25.6,9.6 L25.6,14.4 L6.78986667,14.4 C6.6656,14.4 6.54613333,14.4208 6.4304,14.4522667 C6.4208,14.4549333 6.4096,14.4538667 6.4,14.4565333 L6.4,1.06666667 L25.6,1.06666667 Z M5.33333333,2.13333333 L5.33333333,15.7786667 L5.29973333,15.8709333 L4.8,17.2405333 L4.8,2.13333333 L5.33333333,2.13333333 Z M3.2,3.2 L3.73333333,3.2 L3.73333333,20.1653333 L3.2,21.6272 L3.2,5.86666667 L3.2,3.2 Z M1.06666667,7.32373333 C1.06666667,7.10826667 1.24213333,6.93333333 1.45706667,6.93333333 L2.13333333,6.93333333 L2.13333333,24.5029333 L1.06666667,27.4122667 L1.06666667,7.32373333 Z M25.5296,30.7114667 C25.4949333,30.8421333 25.3754667,30.9333333 25.2394667,30.9333333 L1.368,30.9333333 C1.2384,30.9333333 1.16266667,30.8592 1.12906667,30.8149333 C1.09546667,30.7712 1.04373333,30.6784 1.06346667,30.5973333 L2.13333333,27.664 L2.13333333,27.6645333 L3.73333333,23.2778667 L5.33333333,18.8912 L5.33333333,18.8928 L6.36373333,16.0656 L6.4,15.9669333 L6.48533333,15.7328 L6.4992,15.6890667 C6.5344,15.5584 6.6544,15.4666667 6.78986667,15.4666667 L25.6,15.4666667 L26.6666667,15.4666667 L28.8,15.4666667 L30.6613333,15.4666667 C30.8634667,15.4666667 30.9157333,15.7578667 30.9285333,15.9034667 L25.5296,30.7114667 Z" id="Shape"></path>
            <path d="M9.57692308,8 L23.4230769,8 C23.7415385,8 24,7.7765 24,7.5 C24,7.2235 23.7415385,7 23.4230769,7 L9.57692308,7 C9.25846154,7 9,7.2235 9,7.5 C9,7.7765 9.25846154,8 9.57692308,8 Z" id="Shape"></path>
            <path d="M9.5,5 L14.5,5 C14.776,5 15,4.7765 15,4.5 C15,4.2235 14.776,4 14.5,4 L9.5,4 C9.224,4 9,4.2235 9,4.5 C9,4.7765 9.224,5 9.5,5 Z" id="Shape"></path>
            <path d="M9.57692308,13 L23.4230769,13 C23.7415385,13 24,12.7765 24,12.5 C24,12.2235 23.7415385,12 23.4230769,12 L9.57692308,12 C9.25846154,12 9,12.2235 9,12.5 C9,12.7765 9.25846154,13 9.57692308,13 Z" id="Shape"></path>
        </g>
        <g id="Group-9" transform="translate(570.000000, 577.000000)" fill="#091141" fill-rule="nonzero">
            <path d="M26.6663167,1.33333333 C24.8874811,-0.444444444 21.9942126,-0.444444444 20.215377,1.33333333 L1.93948828,19.6087673 C1.93087283,19.6173825 1.92580493,19.6280248 1.91820306,19.6371468 C1.90756046,19.6493095 1.89843822,19.6624857 1.8888092,19.675662 C1.86194929,19.7131636 1.84117087,19.753199 1.82546035,19.796782 C1.82089924,19.8099582 1.81431096,19.8216141 1.81076342,19.8347903 C1.80924305,19.8398581 1.8062023,19.8449259 1.80468193,19.8499937 L0.01317656,27.3756493 C0.0050679077,27.4096034 0.00304074462,27.4440644 0.00202716308,27.4780185 C0.00202716308,27.4846066 0,27.490688 0,27.4972761 C0.00050679077,27.5550488 0.01317656,27.6113012 0.0329414,27.6655264 C0.037502517,27.6781959 0.0425704247,27.689345 0.0481451231,27.7015077 C0.0729778709,27.7557329 0.103892108,27.8079311 0.147476114,27.851514 C0.195621237,27.8996579 0.252381803,27.9366527 0.313703487,27.9619916 C0.37502517,27.9873305 0.440401179,28 0.505777188,28 C0.544800078,28 0.584329758,27.995439 0.622845856,27.986317 L8.14868879,26.1948562 C8.16237214,26.1918155 8.17453512,26.1842139 8.18771168,26.1796529 C8.20494257,26.1740783 8.22115987,26.1674902 8.23788397,26.1598885 C8.2743729,26.1431648 8.30832788,26.1223869 8.33974891,26.0975548 C8.35191189,26.087926 8.36458166,26.0808311 8.37623785,26.0701888 C8.38029217,26.0661345 8.38536008,26.0641074 8.38941441,26.0600532 L26.6658099,7.7841125 C28.4446455,6.00532117 28.4446455,3.11161789 26.6663167,1.33333333 Z M25.9497146,2.04991765 C27.21061,3.31128848 27.3180497,5.29177752 26.2791286,6.68034968 L21.3191673,1.72051185 C22.7082808,0.681616622 24.6888191,0.789053592 25.9497146,2.04991765 Z M23.4411003,9.57557329 L18.4238717,4.55846953 L19.1404738,3.84188521 L24.1577024,8.85898898 L23.4411003,9.57557329 Z M2.51418901,25.48486 C2.31603382,25.2867097 1.99574205,25.2867097 1.79758686,25.48486 L1.41394625,25.8684911 L2.70828987,20.431775 L4.94931866,20.1829469 L4.66095471,22.7786646 C4.65892755,22.7979222 4.66602262,22.8156594 4.66602262,22.8344102 C4.66602262,22.8536678 4.65892755,22.8708983 4.66095471,22.8901558 C4.66298187,22.9068795 4.67159732,22.9205625 4.67514485,22.9367794 C4.68122634,22.9661726 4.68984179,22.9930318 4.70048439,23.0203978 C4.71366095,23.0533384 4.72937147,23.0832383 4.74862951,23.1121247 C4.76434003,23.1354365 4.78005054,23.1562144 4.79930859,23.1764855 C4.82363455,23.2023312 4.84998767,23.2241226 4.87887474,23.2443938 C4.90168033,23.2601039 4.92347233,23.2748005 4.94881187,23.2869631 C4.98226006,23.3026733 5.01722862,23.3117953 5.05371756,23.3204105 C5.07297561,23.3249715 5.08868612,23.3356138 5.10845096,23.3381477 C5.12669543,23.3401748 5.1449399,23.3411884 5.16369116,23.3411884 C5.16369116,23.3411884 5.16419795,23.3411884 5.16419795,23.3411884 C5.16419795,23.3411884 5.16470474,23.3411884 5.16470474,23.3411884 L5.16521153,23.3411884 C5.16521153,23.3411884 5.16571832,23.3411884 5.16571832,23.3411884 C5.18396279,23.3411884 5.20271404,23.3401748 5.22095851,23.3381477 L7.81674084,23.049791 L7.56790657,25.290764 L2.1305484,26.5850754 L2.51418901,26.2014443 C2.71183741,26.0038008 2.71183741,25.6830103 2.51418901,25.48486 Z M8.87441317,22.7082225 L20.215377,11.3670341 C20.4135322,11.1688838 20.4135322,10.8486 20.215377,10.6504498 C20.0172218,10.4522995 19.6969301,10.4522995 19.4987749,10.6504498 L8.15781102,21.9916382 L5.73889868,22.2602306 L6.00749779,19.8413784 L17.3494752,8.50069682 C17.5476304,8.30254656 17.5476304,7.98226276 17.3494752,7.7841125 C17.15132,7.58596225 16.8310283,7.58596225 16.6328731,7.7841125 L5.29089564,19.1247941 L3.67778062,19.3041936 L17.7072695,5.27505385 L22.7244981,10.2921576 L8.69500924,24.3212974 L8.87441317,22.7082225 Z M24.8743046,8.14240466 L19.8570759,3.1253009 L20.5741849,2.40820981 L25.5914135,7.42531357 L24.8743046,8.14240466 Z" id="Shape"></path>
        </g>
    </g>
</svg>