<?xml version="1.0" encoding="UTF-8" standalone="no"?>
<svg width="1440px" height="1024px" viewBox="0 0 1440 1024" version="1.1" xmlns="http://www.w3.org/2000/svg" xmlns:xlink="http://www.w3.org/1999/xlink" style="background: #FFFFFF;">
    <!-- Generator: Sketch 49 (51002) - http://www.bohemiancoding.com/sketch -->
    <title>Desktop HD Copy 2</title>
    <desc>Created with Sketch.</desc>
    <defs>
        <rect id="path-1" x="0" y="0" width="343.581395" height="63.8245614" rx="2"></rect>
    </defs>
    <g id="Desktop-HD-Copy-2" stroke="none" stroke-width="1" fill="none" fill-rule="evenodd">
        <rect id="Rectangle-2" fill="#091141" x="37" y="141" width="1366" height="974" rx="2"></rect>
        <text id="Supply-Chain" font-family="DINPro-Bold, DINPro" font-size="54" font-weight="bold" fill="#091141">
            <tspan x="561.038" y="97">Supply Chain</tspan>
        </text>
        <rect id="Rectangle" fill="#FFFFFF" x="549" y="322" width="343.581395" height="63.8245614" rx="2"></rect>
        <text id="Clocks" font-family="DINPro-Regular, DINPro" font-size="32" font-weight="normal" fill="#132C4A">
            <tspan x="673.224" y="366">Clocks</tspan>
        </text>
        <rect id="Rectangle" fill="#FFFFFF" x="549" y="432" width="343.581395" height="63.8245614" rx="2"></rect>
        <text id="thing" font-family="DINPro-Regular, DINPro" font-size="32" font-weight="normal" fill="#132C4A">
            <tspan x="684.468" y="476">thing</tspan>
        </text>
        <rect id="Rectangle" fill="#FFFFFF" x="548" y="542" width="343.581395" height="63.8245614" rx="2"></rect>
        <text id="Limes" font-family="DINPro-Regular, DINPro" font-size="32" font-weight="normal" fill="#132C4A">
            <tspan x="676.304" y="586">Limes</tspan>
        </text>
        <rect id="Rectangle" fill="#FFFFFF" x="549" y="212" width="344" height="64" rx="2"></rect>
        <text id="Anthem-Gold" font-family="DINPro-Regular, DINPro" font-size="32" font-weight="normal" fill="#132C4A">
            <tspan x="629.048" y="257">Anthem Gold</tspan>
        </text>
        <g id="info" transform="translate(562.000000, 445.000000)" fill-rule="nonzero">
            <path d="M38,19.0004595 C38,8.50602235 29.4933912,0 19.0003064,0 C8.50668537,-1.09710372e-15 0,8.50602235 0,19.0004595 C0,29.4932883 8.50668537,38 19.0003064,38 C29.4933912,38 38,29.4932883 38,19.0004595 Z" id="Shape" fill="#25B7D3"></path>
            <g id="Group" transform="translate(13.000000, 5.000000)" fill="#FFFFFF">
                <path d="M10.4982365,21.8523259 C10.3951486,21.6995014 10.1973716,21.6451253 10.032223,21.7243203 C8.20518243,22.5995265 6.13153378,23.5248217 5.72453378,23.6056713 C5.71427703,23.5964206 5.698,23.5794986 5.67666892,23.5502423 C5.62152027,23.4746574 5.59468919,23.3759081 5.59468919,23.2482786 C5.59468919,22.2024986 6.37472297,19.0211616 7.91301351,13.7930891 C9.2100473,9.40043733 9.36003378,8.49093593 9.36003378,8.18897214 C9.36003378,7.7228273 9.18366216,7.32895822 8.8497973,7.04985794 C8.53265541,6.78519777 8.08953378,6.65110028 7.53284459,6.65110028 C6.60683784,6.65110028 5.53359459,7.00683844 4.25172297,7.73869638 C3.00954054,8.44814206 1.62420946,9.64975487 0.134452703,11.3101421 C0.0178378378,11.4401783 0.00564864865,11.6345933 0.105094595,11.7785432 C0.204689189,11.9225682 0.389385135,11.9773955 0.55,11.9112117 C1.07302027,11.6952117 3.7015,10.6056602 4.08464189,10.3621337 C4.39836486,10.1631309 4.66994595,10.0621253 4.89187838,10.0621253 C4.89983108,10.0621253 4.90666892,10.0624262 4.91239189,10.0628774 C4.91506757,10.0777688 4.91759459,10.1004819 4.91759459,10.1330474 C4.91759459,10.3622089 4.87099324,10.6334875 4.77964865,10.9380084 C2.53981081,18.2814819 1.45103378,22.7832618 1.45103378,24.7007883 C1.45103378,25.3775181 1.63691892,25.9223315 2.00341216,26.3198858 C2.37689189,26.7254875 2.88066216,26.9311086 3.50075,26.9311086 C4.16156757,26.9311086 4.96583108,26.6517827 5.95939865,26.0771866 C6.92085811,25.5212423 8.38831757,24.2982702 10.4458378,22.3380251 C10.5791014,22.2111476 10.6013243,22.0051504 10.4982365,21.8523259 Z" id="Shape"></path>
                <path d="M10.4263649,0.577002786 C10.0603176,0.197874652 9.59192568,0.00564066852 9.03434459,0.00564066852 C8.34015541,0.00564066852 7.73552703,0.283236769 7.23747973,0.83075766 C6.74738514,1.36925348 6.49884459,2.030039 6.49884459,2.79468802 C6.49884459,3.39884123 6.68190541,3.89950696 7.04289865,4.28269638 C7.40872297,4.67167688 7.8707973,4.86887465 8.41611486,4.86887465 C9.08191216,4.86887465 9.68327027,4.57571031 10.2033919,3.99750418 C10.7144459,3.42945125 10.9736149,2.7615961 10.9736149,2.01251532 C10.9736892,1.4368663 10.7895878,0.953949861 10.4263649,0.577002786 Z" id="Shape"></path>
            </g>
        </g>
        <g id="one" transform="translate(563.000000, 225.000000)" fill-rule="nonzero">
            <path d="M19.0002298,0 C8.50668537,0 0,8.50586917 0,19.0004595 C0,29.4932118 8.50668537,38 19.0002298,38 C29.4933146,38 38,29.4932118 38,19.0004595 C38,8.50586917 29.4933146,0 19.0002298,0 Z" id="Shape" fill="#56B48C"></path>
            <path d="M21.6449746,11.4646745 C21.4081901,11.1549689 21.0938408,11 20.701851,11 C20.3540974,11 20.1173886,11.0680068 19.9917246,11.2040204 C19.8658334,11.340034 19.5958718,11.7026597 19.1817639,12.292052 C18.7674288,12.881367 18.2921933,13.4140483 17.7559816,13.8900186 C17.2195427,14.3659889 16.5038867,14.8193676 15.6089381,15.25 C15.0097808,15.5371914 14.5917341,15.7713082 14.3551011,15.9526597 C14.1183165,16.1340111 14,16.4173342 14,16.8026287 C14,17.135158 14.1201345,17.42792 14.3606306,17.680992 C14.6008995,17.9342187 14.8766179,18.0606386 15.1872556,18.0606386 C15.8380722,18.0606386 17.1030441,17.3240142 18.9820196,15.8506881 L18.9820196,26.1639709 C18.9820196,26.7685275 19.1188183,27.2256199 19.3925673,27.5353255 C19.6661648,27.8450311 20.0286133,28 20.4799129,28 C21.4932538,28 22,27.2407067 22,25.7220427 L22,12.7453533 C22.0000757,12.2013762 21.8816834,11.7746122 21.6449746,11.4646745 Z" id="Shape" fill="#FFFFFF"></path>
        </g>
        <g id="clock" transform="translate(563.000000, 335.000000)" fill-rule="nonzero">
            <path d="M19,0 C29.4796915,0 38,8.5203423 38,19.0000754 C38,29.4798085 29.4796161,38 19,38 C8.52038387,38 0,29.5094322 0,19.0000754 C0,8.5203423 8.5203085,0 19,0 Z" id="Shape" fill="#324D5B"></path>
            <path d="M18.5000371,3 C27.0689092,3 34,9.93118167 34,18.5 C34,27.0688183 27.0688349,34 18.5000371,34 C9.93123933,34 3,27.0688183 3,18.5000743 C3,9.93133018 9.93116507,3 18.5000371,3 Z" id="Shape" fill="#DFE1E2"></path>
            <path d="M18.5,17 C19.8749683,17 21,18.1249524 21,19.5 C21,20.8749683 19.8750476,22 18.5,22 C17.1249524,22 16,20.8750476 16,19.5 C16,18.124873 17.1249524,17 18.5,17 Z" id="Shape" fill="#BEBFC0"></path>
            <path d="M21.9333993,15.1828375 L12.1828375,24.9334767 C11.9390542,25.1772601 11.9390542,25.5733791 12.1828375,25.8171625 C12.4266209,26.0609458 12.8227399,26.0609458 13.0665233,25.8171625 L22.8171625,16.0665233 C23.0609458,15.8227399 23.0609458,15.4266209 22.8171625,15.1828375 C22.5733017,14.9390542 22.1771827,14.9390542 21.9333993,15.1828375 Z" id="Shape" fill="#E2574C"></path>
            <path d="M19.1593899,18 L16,21.1654398 C16.2029034,21.5107498 16.4927232,21.7985569 16.8406101,22 L20,18.8345602 C19.7970966,18.489104 19.5072768,18.2014431 19.1593899,18 Z" id="Shape" fill="#C04A41"></path>
            <path d="M18.930641,18.2463373 L28.4076803,18.2463373 C28.7334298,18.2463373 29,18.5083151 29,18.8284528 C29,19.1485905 28.7334298,19.4105683 28.4076803,19.4105683 L18.930641,19.4105683 C18.6048915,19.4105683 18.3383213,19.1485905 18.3383213,18.8284528 C18.3383213,18.5082412 18.6048163,18.2463373 18.930641,18.2463373 Z M14.9028372,13.3275093 L19.7894556,18.1299438 C20.2337142,18.5665489 20.2337142,19.2359411 19.7894556,19.6725462 C19.3451971,20.1091513 18.6640708,20.1091513 18.2198123,19.6725462 L13.3331939,14.8701117 C12.8889354,14.4335066 12.8889354,13.7641144 13.3331939,13.3275093 C13.7478252,12.8908302 14.4586539,12.8908302 14.9028372,13.3275093 Z" id="Shape" fill="#324D5B"></path>
            <path d="M19.5,17 C20.8749683,17 22,18.1249524 22,19.5 C22,20.8750476 20.8750476,22 19.5,22 C18.1249524,22 17,20.8750476 17,19.5 C17,18.1249524 18.1249524,17 19.5,17 Z" id="Shape" fill="#E4E7E7"></path>
            <path d="M19,18 C19.550019,18 20,18.449981 20,19 C20,19.550019 19.550019,20 19,20 C18.449981,20 18,19.550019 18,19 C18,18.449981 18.449981,18 19,18 Z" id="Shape" fill="#324D5B"></path>
            <path d="M18.5129536,3 C13.9252818,3 9.83440868,4.98704639 7,8.14286068 C9.74678633,5.68832197 13.3700929,4.16884209 17.3441857,4.16884209 C25.9058761,4.16884209 32.8311579,11.0941981 32.8311579,19.6558143 C32.8311579,23.6298329 31.3409102,27.2532137 28.8571393,30 C32.0129536,27.1655913 34,23.074644 34,18.4870464 C33.9999258,9.9252818 27.0745698,3 18.5129536,3 Z" id="Shape" fill="#CFD1D2"></path>
        </g>
        <g id="lime" transform="translate(562.000000, 555.000000)" fill-rule="nonzero">
            <circle id="Oval" fill="#00447D" cx="19" cy="19" r="19"></circle>
            <path d="M20.2575529,38 C30.1518243,37.4286862 38,29.1968929 38,19.1244869 C38,18.4748806 37.9672477,17.832882 37.9035833,17.2000421 L25.746536,5 L25.6366504,12.1014266 L11,28.7098544 L20.2575529,38 Z" id="Shape" fill="#062964"></path>
            <path d="M24.747428,4 C24.747428,4 26.7973348,4.8721381 26.9868452,7.87191866 C27.1765008,10.872065 25.2527163,12 25.2527163,12 C25.2527163,12 23.2025191,11.1278619 23.0131539,8.12800819 C22.8234983,5.12778875 24.747428,4 24.747428,4 Z" id="Shape" fill="#72BD39"></path>
            <path d="M26.9884876,7.871921 C26.822632,4.87204901 25.0285958,4 25.0285958,4 C25.0285958,4 25.0178565,4.00731462 25,4.02070037 L25.44082,11.9841273 C25.4595661,11.9944409 25.4707502,12 25.4707502,12 C25.4707502,12 27.1544702,10.8720124 26.9884876,7.871921 Z" id="Shape" fill="#51A448"></path>
            <path d="M24.2307464,26.2312432 C27.7792627,22.6826742 28.9352773,17.9213789 27.2146674,14.8557795 C27.2680884,14.8151786 27.3204485,14.7718507 27.369323,14.7231447 C27.9469515,14.1453386 27.9469515,13.2086382 27.369323,12.6306805 C26.7915431,12.0528744 25.8546681,12.0528744 25.2770396,12.6306805 C25.2283167,12.6793865 25.1849737,12.7317284 25.1444344,12.7852823 C22.0787527,11.0647411 17.3173152,12.2208078 13.7692536,15.7690738 C10.2207373,19.3174913 9.06472271,24.0785593 10.7853326,27.1442345 C10.7320631,27.1849869 10.6796272,27.2280876 10.630677,27.2768693 C10.0530485,27.8546755 10.0530485,28.7915274 10.630677,29.3690305 C11.2086085,29.9468366 12.1451804,29.9468366 12.7229604,29.3690305 C12.7718349,29.3200973 12.8150263,29.2679826 12.8555656,29.2144287 C15.921323,30.9353487 20.682609,29.7794335 24.2307464,26.2312432 Z" id="Shape" fill="#F3D64E"></path>
            <path d="M27.2331515,14.192131 C27.2853172,14.1524316 27.336447,14.1100659 27.3841731,14.0624415 C27.9482286,13.4974661 27.9482286,12.5815661 27.3841731,12.0164426 C27.3783276,12.0105914 27.3719641,12.0057031 27.3658966,12 L11,28.3402899 C11.0131709,28.3545846 11.0250099,28.369546 11.0389208,28.3833223 C11.6032723,28.9482976 12.5178369,28.9482976 13.0820403,28.3833223 C13.1297664,28.3354756 13.1719429,28.2845182 13.2115297,28.2321536 C16.2051748,29.9144884 20.8547295,28.7840933 24.3194198,25.3146943 C27.7844801,21.8450732 28.913257,17.1896556 27.2331515,14.192131 Z" id="Shape" fill="#EEBB46"></path>
        </g>
        <g id="Group-2" transform="translate(549.000000, 847.000000)">
            <g id="Rectangle">
                <use fill="#FFFFFF" fill-rule="evenodd" xlink:href="#path-1"></use>
                <rect stroke="#F3C736" stroke-width="2" x="-1" y="-1" width="345.581395" height="65.8245614" rx="2"></rect>
            </g>
            <text id="Create-New" font-family="DINPro-Regular, DINPro" font-size="32" font-weight="normal" fill="#132C4A">
                <tspan x="88.124" y="44">Create New</tspan>
            </text>
            <g id="Group-3" transform="translate(13.000000, 10.000000)">
                <circle id="Oval-2" fill="#BCBCBC" cx="19.5" cy="22.5" r="19.5"></circle>
                <text id="+" font-family="Montserrat-Regular, Montserrat" font-size="36" font-weight="normal" fill="#FFFFFF">
                    <tspan x="9" y="35">+</tspan>
                </text>
            </g>
        </g>
        <g id="Group" transform="translate(99.000000, 195.000000)" fill="#FFFFFF" fill-rule="nonzero">
            <path d="M26.8245614,10.622807 C26.8245614,10.0028304 26.394712,9.5 25.8647189,9.5 L1.95984246,9.5 C1.42968947,9.5 1,10.0028304 1,10.622807 C1,11.2427836 1.42968947,11.745614 1.95984246,11.745614 L25.8647189,11.745614 C26.394712,11.745614 26.8245614,11.2427836 26.8245614,10.622807 Z" id="Shape" transform="translate(13.912281, 10.622807) rotate(180.000000) translate(-13.912281, -10.622807) "></path>
            <path d="M0.314313569,19.3360203 C0.047275594,19.6609928 0.047275594,20.1879116 0.314313569,20.5128842 C0.447718632,20.6753011 0.622705974,20.7565789 0.797579392,20.7565789 C0.972452809,20.7565789 1.14744015,20.6753011 1.28084521,20.5128842 L8.91375661,11.2200282 C9.18079458,10.8950557 9.18079458,10.3681369 8.91375661,10.0431643 L1.28084521,0.750308367 C1.01403509,0.425335807 0.581009771,0.425335807 0.314313569,0.750308367 C0.047275594,1.07528093 0.047275594,1.60219973 0.314313569,1.92717229 L7.46384521,10.6315269 L0.314313569,19.3360203 Z" id="Shape" transform="translate(4.614035, 10.631579) rotate(180.000000) translate(-4.614035, -10.631579) "></path>
        </g>
        <rect id="Rectangle-Copy-4" fill="#FFFFFF" x="1368" y="19" width="171" height="34" rx="2"></rect>
        <text id="Weight" font-family="DINPro-Medium, DINPro" font-size="14" font-weight="400" fill="#FFFFFF">
            <tspan x="1226" y="40">Weight</tspan>
        </text>
        <text id="Weight" font-family="DINPro-Regular, DINPro" font-size="14" font-weight="normal" fill="#132C4A">
            <tspan x="1432.482" y="40">Weight</tspan>
        </text>
    </g>
</svg>