<?xml version="1.0" encoding="UTF-8" standalone="no"?>
<svg width="30px" height="30px" viewBox="0 0 30 30" version="1.1" xmlns="http://www.w3.org/2000/svg" xmlns:xlink="http://www.w3.org/1999/xlink">
    <!-- Generator: Sketch 49 (51002) - http://www.bohemiancoding.com/sketch -->
    <title>camera</title>
    <desc>Created with Sketch.</desc>
    <defs>
        <linearGradient x1="98.566203%" y1="50%" x2="0.97091763%" y2="50%" id="linearGradient-1">
            <stop stop-color="#C59C08" offset="0%"></stop>
            <stop stop-color="#DED81B" offset="51.6708815%"></stop>
            <stop stop-color="#C29F09" offset="100%"></stop>
        </linearGradient>
    </defs>
    <g id="camera" stroke="none" stroke-width="1" fill="none" fill-rule="evenodd">
        <circle id="Oval" fill="url(#linearGradient-1)" fill-rule="nonzero" cx="16" cy="16" r="4"></circle>
        <path d="M11.75,3 L9.5,5.55555556 L5.5,5.55555556 C4.125,5.55555556 3,6.70555556 3,8.11111111 L3,23.4444444 C3,24.85 4.125,26 5.5,26 L25.5,26 C26.875,26 28,24.85 28,23.4444444 L28,8.11111111 C28,6.70555556 26.875,5.55555556 25.5,5.55555556 L21.5,5.55555556 L19.25,3 L11.75,3 Z M15.5,22.1666667 C12,22.1666667 9.25,19.3555556 9.25,15.7777778 C9.25,12.2 12,9.38888889 15.5,9.38888889 C19,9.38888889 21.75,12.2 21.75,15.7777778 C21.75,19.3555556 19,22.1666667 15.5,22.1666667 Z" id="Shape" fill="url(#linearGradient-1)" fill-rule="nonzero"></path>
    </g>
</svg>