<?xml version="1.0" encoding="UTF-8" standalone="no"?>
<svg width="24px" height="24px" viewBox="0 0 24 24" version="1.1" xmlns="http://www.w3.org/2000/svg" xmlns:xlink="http://www.w3.org/1999/xlink">
    <!-- Generator: Sketch 49 (51002) - http://www.bohemiancoding.com/sketch -->
    <title>Clock</title>
    <desc>Created with Sketch.</desc>
    <defs></defs>
    <g id="Clock" stroke="none" stroke-width="1" fill="none" fill-rule="evenodd">
        <g id="clock" transform="translate(2.000000, 2.000000)" fill-rule="nonzero">
            <path d="M9.98265347,3.96039604e-05 C15.4887129,3.96039604e-05 19.9653069,4.47663366 19.9653069,9.98269307 C19.9653069,15.4887525 15.4886733,19.9652673 9.98265347,19.9652673 C4.47663366,19.9652673 0,15.5043168 0,9.98269307 C0,4.47663366 4.47659406,3.96039604e-05 9.98265347,3.96039604e-05 Z" id="Shape" fill="#324D5B"></path>
            <path d="M9.98265347,1.71580198 C14.5528317,1.71580198 18.249505,5.41251485 18.249505,9.98265347 C18.249505,14.5527921 14.5527921,18.249505 9.98265347,18.249505 C5.41251485,18.249505 1.71576238,14.5527921 1.71576238,9.98269307 C1.71576238,5.41259406 5.41247525,1.71580198 9.98265347,1.71580198 Z" id="Shape" fill="#DFE1E2"></path>
            <path d="M9.67069307,9.04681188 C10.3569901,9.04681188 10.9185347,9.60831683 10.9185347,10.2946535 C10.9185347,10.9809505 10.3570297,11.542495 9.67069307,11.542495 C8.98435644,11.542495 8.42285149,10.9809901 8.42285149,10.2946535 C8.42285149,9.60827723 8.98435644,9.04681188 9.67069307,9.04681188 Z" id="Shape" fill="#BEBFC0"></path>
            <path d="M11.3240396,8.20447525 L6.33275248,13.195802 C6.2079604,13.3205941 6.2079604,13.5233663 6.33275248,13.6481584 C6.45754455,13.7729505 6.66031683,13.7729505 6.78510891,13.6481584 L11.7764356,8.65683168 C11.9012277,8.5320396 11.9012277,8.32926733 11.7764356,8.20447525 C11.651604,8.07968317 11.4488317,8.07968317 11.3240396,8.20447525 Z" id="Shape" fill="#E2574C"></path>
            <path d="M10.2945743,9.21837624 L8.59441584,10.9341386 C8.70360396,11.1213069 8.85956436,11.2773069 9.04677228,11.386495 L10.7469307,9.67073267 C10.6377426,9.48348515 10.4817822,9.32756436 10.2945743,9.21837624 Z" id="Shape" fill="#C04A41"></path>
            <path d="M9.98265347,9.67073267 L14.9739802,9.67073267 C15.1455446,9.67073267 15.2859406,9.81112871 15.2859406,9.98269307 C15.2859406,10.1542574 15.1455446,10.2946535 14.9739802,10.2946535 L9.98265347,10.2946535 C9.81108911,10.2946535 9.67069307,10.1542574 9.67069307,9.98269307 C9.67069307,9.81108911 9.8110495,9.67073267 9.98265347,9.67073267 Z M7.86130693,7.03469307 L10.4349703,9.60835644 C10.6689505,9.84233663 10.6689505,10.2010693 10.4349703,10.4350495 C10.2009901,10.6690297 9.84225743,10.6690297 9.60827723,10.4350495 L7.03461386,7.86138614 C6.80063366,7.62740594 6.80063366,7.26867327 7.03461386,7.03469307 C7.2529901,6.80067327 7.62736634,6.80067327 7.86130693,7.03469307 Z" id="Shape" fill="#324D5B"></path>
            <path d="M9.98265347,8.73485149 C10.6689505,8.73485149 11.230495,9.29635644 11.230495,9.98269307 C11.230495,10.6690297 10.6689901,11.2305347 9.98265347,11.2305347 C9.29631683,11.2305347 8.73481188,10.6690297 8.73481188,9.98269307 C8.73481188,9.29635644 9.29631683,8.73485149 9.98265347,8.73485149 Z" id="Shape" fill="#E4E7E7"></path>
            <path d="M9.98265347,9.35877228 C10.3258218,9.35877228 10.6065743,9.63952475 10.6065743,9.98269307 C10.6065743,10.3258614 10.3258218,10.6066139 9.98265347,10.6066139 C9.63948515,10.6066139 9.35873267,10.3258614 9.35873267,9.98269307 C9.35873267,9.63952475 9.63948515,9.35877228 9.98265347,9.35877228 Z" id="Shape" fill="#324D5B"></path>
            <path d="M9.98265347,1.71580198 C7.53378218,1.71580198 5.35009901,2.77647525 3.83710891,4.4610297 C5.30332673,3.15081188 7.23742574,2.33972277 9.35877228,2.33972277 C13.9289505,2.33972277 17.6256238,6.03643564 17.6256238,10.6065743 C17.6256238,12.7278812 16.8301386,14.6620198 15.5043168,16.1282376 C17.1888713,14.6152475 18.2495446,12.4315248 18.2495446,9.98269307 C18.249505,5.41247525 14.5527921,1.71580198 9.98265347,1.71580198 Z" id="Shape" fill="#CFD1D2"></path>
        </g>
    </g>
</svg>