<?xml version="1.0" encoding="UTF-8" standalone="no"?>
<svg width="24px" height="24px" viewBox="0 0 24 24" version="1.1" xmlns="http://www.w3.org/2000/svg" xmlns:xlink="http://www.w3.org/1999/xlink">
    <!-- Generator: Sketch 49 (51002) - http://www.bohemiancoding.com/sketch -->
    <title>digital viewer</title>
    <desc>Created with Sketch.</desc>
    <defs>
        <linearGradient x1="98.566203%" y1="50%" x2="0.97091763%" y2="50%" id="linearGradient-1">
            <stop stop-color="#C59C08" offset="0%"></stop>
            <stop stop-color="#DED81B" offset="51.6708815%"></stop>
            <stop stop-color="#C29F09" offset="100%"></stop>
        </linearGradient>
    </defs>
    <g id="digital-viewer" stroke="none" stroke-width="1" fill="none" fill-rule="evenodd">
        <ellipse id="Oval-3-Copy" stroke="url(#linearGradient-1)" stroke-width="2" cx="11.9839477" cy="11.8676471" rx="10.9839477" ry="10.8676471"></ellipse>
        <g id="Group-5" transform="translate(6.000000, 6.000000)" fill="url(#linearGradient-1)" fill-rule="nonzero">
            <path d="M10.7761513,0.5 L0.223848705,0.5 C0.100246912,0.5 0,0.600246912 0,0.723848705 L0,11.2761513 C0,11.3997531 0.100246912,11.5 0.223848705,11.5 L9.19350364,11.5 C9.31710543,11.5 9.41735234,11.3997531 9.41735234,11.2761513 C9.41735234,11.1525495 9.31710543,11.0523026 9.19350364,11.0523026 L0.447697411,11.0523026 L0.447697411,0.947697411 L10.5523026,0.947697411 L10.5523026,11.2761513 C10.5523026,11.3997531 10.6525495,11.5 10.7761513,11.5 C10.8997531,11.5 11,11.3997531 11,11.2761513 L11,0.723848705 C11,0.600246912 10.8997531,0.5 10.7761513,0.5 Z" id="Shape"></path>
            <path d="M3,2 C2.44856522,2 2,2.44856522 2,3 C2,3.55143478 2.44856522,4 3,4 C3.55143478,4 4,3.55143478 4,3 C4,2.44856522 3.55143478,2 3,2 Z M3,3.47826087 C2.73630435,3.47826087 2.52173913,3.26369565 2.52173913,3 C2.52173913,2.73630435 2.73630435,2.52173913 3,2.52173913 C3.26369565,2.52173913 3.47826087,2.73630435 3.47826087,3 C3.47826087,3.26369565 3.26373913,3.47826087 3,3.47826087 Z" id="Shape"></path>
            <path d="M9.76315789,2.69999981 L4.23684211,2.69999981 C4.10606579,2.69999981 4,2.81195814 4,2.94999981 C4,3.08804148 4.10606579,3.19999981 4.23684211,3.19999981 L9.76315789,3.19999981 C9.89393421,3.19999981 10,3.08804148 10,2.94999981 C10,2.81195814 9.89397368,2.69999981 9.76315789,2.69999981 Z" id="Shape"></path>
            <path d="M3,5 C2.85595652,5 2.73913043,5.11682609 2.73913043,5.26086957 C2.73913043,5.40491304 2.85595652,5.52173913 3,5.52173913 C3.26369565,5.52173913 3.47826087,5.73630435 3.47826087,6 C3.47826087,6.26369565 3.26369565,6.47826087 3,6.47826087 C2.73630435,6.47826087 2.52173913,6.26369565 2.52173913,6 C2.52173913,5.85595652 2.40491304,5.73913043 2.26086957,5.73913043 C2.11682609,5.73913043 2,5.85595652 2,6 C2,6.55143478 2.44856522,7 3,7 C3.55143478,7 4,6.55143478 4,6 C4,5.44856522 3.55143478,5 3,5 Z" id="Shape"></path>
            <path d="M9.76315789,6 L4.23684211,6 C4.10606579,6 4,6.11195833 4,6.25 C4,6.38804167 4.10606579,6.5 4.23684211,6.5 L9.76315789,6.5 C9.89393421,6.5 10,6.38804167 10,6.25 C10,6.11195833 9.89397368,6 9.76315789,6 Z" id="Shape"></path>
            <path d="M3,8 C2.44856522,8 2,8.44856522 2,9 C2,9.55143478 2.44856522,10 3,10 C3.55143478,10 4,9.55143478 4,9 C4,8.44856522 3.55143478,8 3,8 Z M3,9.47826087 C2.73630435,9.47826087 2.52173913,9.26369565 2.52173913,9 C2.52173913,8.73630435 2.73630435,8.52173913 3,8.52173913 C3.26369565,8.52173913 3.47826087,8.73630435 3.47826087,9 C3.47826087,9.26369565 3.26373913,9.47826087 3,9.47826087 Z" id="Shape"></path>
            <path d="M9.76315789,9 L4.23684211,9 C4.10606579,9 4,9.11195833 4,9.25 C4,9.38804167 4.10606579,9.5 4.23684211,9.5 L9.76315789,9.5 C9.89393421,9.5 10,9.38804167 10,9.25 C10,9.11195833 9.89397368,9 9.76315789,9 Z" id="Shape"></path>
        </g>
    </g>
</svg>