<?xml version="1.0" encoding="UTF-8" standalone="no"?>
<svg width="30px" height="30px" viewBox="0 0 30 30" version="1.1" xmlns="http://www.w3.org/2000/svg" xmlns:xlink="http://www.w3.org/1999/xlink">
    <!-- Generator: Sketch 49 (51002) - http://www.bohemiancoding.com/sketch -->
    <title>documents</title>
    <desc>Created with Sketch.</desc>
    <defs>
        <linearGradient x1="98.566203%" y1="50%" x2="0.97091763%" y2="50%" id="linearGradient-1">
            <stop stop-color="#C59C08" offset="0%"></stop>
            <stop stop-color="#DED81B" offset="51.6708815%"></stop>
            <stop stop-color="#C29F09" offset="100%"></stop>
        </linearGradient>
    </defs>
    <g id="documents" stroke="none" stroke-width="1" fill="none" fill-rule="evenodd">
        <path d="M26.3816341,10.5528281 C25.5591542,9.73035938 24.2208254,9.73040625 23.3980642,10.5530156 C23.1450151,10.8062812 21.5293542,12.4231406 21.28254,12.6701719 L21.28254,7.09809375 C21.28254,6.53465625 21.0631026,6.00496875 20.664637,5.60657813 L18.6758248,3.6178125 C18.277406,3.219375 17.7476343,3 17.184157,3 L5.10952384,3 C3.94633239,3 3,3.94626563 3,5.109375 L3,24.890625 C3,26.0537344 3.94633239,27 5.10952384,27 L19.1730161,27 C20.3362076,27 21.28254,26.0537344 21.28254,24.890625 L21.28254,18.6389531 L26.3815872,13.5359531 C27.206036,12.7116094 27.2062235,11.3772656 26.3816341,10.5528281 Z M17.0635391,4.40625 C17.1963923,4.40625 17.4523947,4.38323437 17.6813952,4.61217187 L19.6702543,6.6009375 C19.8933951,6.82410937 19.8762376,7.06865625 19.8762376,7.21875 L17.0635391,7.21875 L17.0635391,4.40625 Z M19.8761907,24.890625 C19.8761907,25.2783281 19.5607935,25.59375 19.1730161,25.59375 L5.10952384,25.59375 C4.72179336,25.59375 4.40634923,25.2783281 4.40634923,24.890625 L4.40634923,5.109375 C4.40634923,4.72167188 4.72179336,4.40625 5.10952384,4.40625 L15.657143,4.40625 L15.657143,7.921875 C15.657143,8.3101875 15.9719778,8.625 16.3603177,8.625 L19.8761907,8.625 L19.8761907,14.0776406 C19.8761907,14.0776406 17.8016381,16.1538281 17.8015443,16.153875 L16.8075836,17.1478125 C16.7304219,17.2249688 16.672199,17.3190938 16.6376966,17.4226406 L15.6432202,20.4057656 C15.5589799,20.6584219 15.6247501,20.937 15.8131072,21.1252969 C16.0016986,21.313875 16.2803901,21.3793125 16.5326892,21.2951719 L19.5160247,20.3008125 C19.6195789,20.2663125 19.7137105,20.2081406 19.7908722,20.1309375 L19.8761907,20.045625 L19.8761907,24.890625 Z M18.2992045,17.6450156 L19.293634,18.639375 L18.9137791,19.0192031 L17.4221582,19.5163594 L17.9193495,18.0247969 L18.2992045,17.6450156 Z M20.287876,17.6447812 L19.2934465,16.6504219 C19.8229838,16.1205 22.1748217,13.7668125 22.6736069,13.2676406 L23.6680364,14.262 L20.287876,17.6447812 Z M25.3869702,12.5417812 L24.6620909,13.2672187 L23.6676614,12.2728594 L24.392775,11.5471875 C24.6671069,11.2730156 25.1131071,11.2730625 25.3872514,11.5471875 C25.6613489,11.8214062 25.6628021,12.2659219 25.3869702,12.5417812 Z" id="Shape" fill="url(#linearGradient-1)" fill-rule="nonzero"></path>
        <path d="M16.3125,10 L6.6875,10 C6.30781667,10 6,10.4477333 6,11 C6,11.5522667 6.30781667,12 6.6875,12 L16.3125,12 C16.6921833,12 17,11.5522667 17,11 C17,10.4477333 16.6921833,10 16.3125,10 Z" id="Shape" fill="url(#linearGradient-1)" fill-rule="nonzero"></path>
        <path d="M13.3333333,13 L6.66666667,13 C6.29848889,13 6,13.4477333 6,14 C6,14.5522667 6.29848889,15 6.66666667,15 L13.3333333,15 C13.7015111,15 14,14.5522667 14,14 C14,13.4477333 13.7015111,13 13.3333333,13 Z" id="Shape" fill="url(#linearGradient-1)" fill-rule="nonzero"></path>
        <path d="M13.3333333,16 L6.66666667,16 C6.29848889,16 6,16.4477333 6,17 C6,17.5522667 6.29848889,18 6.66666667,18 L13.3333333,18 C13.7015111,18 14,17.5522667 14,17 C14,16.4477333 13.7015111,16 13.3333333,16 Z" id="Shape" fill="url(#linearGradient-1)" fill-rule="nonzero"></path>
        <path d="M13.3333333,19 L6.66666667,19 C6.29848889,19 6,19.4477333 6,20 C6,20.5522667 6.29848889,21 6.66666667,21 L13.3333333,21 C13.7015111,21 14,20.5522667 14,20 C14,19.4477333 13.7015111,19 13.3333333,19 Z" id="Shape" fill="url(#linearGradient-1)" fill-rule="nonzero"></path>
        <path d="M15.375,23 L11.625,23 C11.2798333,23 11,23.4477333 11,24 C11,24.5522667 11.2798333,25 11.625,25 L15.375,25 C15.7201667,25 16,24.5522667 16,24 C16,23.4477333 15.7201667,23 15.375,23 Z" id="Shape" fill="url(#linearGradient-1)" fill-rule="nonzero"></path>
    </g>
</svg>