<?xml version="1.0" encoding="UTF-8" standalone="no"?>
<svg width="30px" height="30px" viewBox="0 0 30 30" version="1.1" xmlns="http://www.w3.org/2000/svg" xmlns:xlink="http://www.w3.org/1999/xlink">
    <!-- Generator: Sketch 49 (51002) - http://www.bohemiancoding.com/sketch -->
    <title>edit</title>
    <desc>Created with Sketch.</desc>
    <defs>
        <linearGradient x1="98.566203%" y1="50%" x2="0.97091763%" y2="50%" id="linearGradient-1">
            <stop stop-color="#C59C08" offset="0%"></stop>
            <stop stop-color="#DED81B" offset="51.6708815%"></stop>
            <stop stop-color="#C29F09" offset="100%"></stop>
        </linearGradient>
    </defs>
    <g id="edit" stroke="none" stroke-width="1" fill="none" fill-rule="evenodd">
        <path d="M24.0473691,5.95238095 C22.7767722,4.68253968 20.7101519,4.68253968 19.439555,5.95238095 L6.38534877,19.0062623 C6.37919488,19.0124161 6.37557495,19.0200177 6.37014505,19.0265335 C6.36254318,19.0352211 6.3560273,19.0446327 6.34914943,19.0540443 C6.32996378,19.0808311 6.31512205,19.1094279 6.30390025,19.1405585 C6.30064231,19.1499701 6.2959364,19.1582958 6.29340244,19.1677074 C6.29231646,19.1713272 6.2901445,19.1749471 6.28905852,19.1785669 L5.00941183,24.5540352 C5.00361993,24.5782882 5.00217196,24.6029031 5.00144797,24.6271561 C5.00144797,24.6318619 5,24.6362057 5,24.6409115 C5.00036199,24.6821777 5.00941183,24.722358 5.02352957,24.7610903 C5.02678751,24.7701399 5.03040745,24.7781036 5.03438937,24.7867912 C5.05212705,24.8255235 5.07420865,24.8628079 5.10534008,24.8939386 C5.13972946,24.9283271 5.18027272,24.954752 5.22407392,24.9728512 C5.26787512,24.9909504 5.31457227,25 5.36126942,25 C5.38914291,25 5.4173784,24.9967421 5.4448899,24.9902264 L10.820492,23.7106116 C10.8302658,23.7084397 10.8389537,23.7030099 10.8483655,23.699752 C10.8606733,23.6957702 10.8722571,23.6910644 10.8842028,23.6856346 C10.9102664,23.6736892 10.9345199,23.6588478 10.9569635,23.6411106 C10.9656513,23.6342329 10.9747012,23.6291651 10.983027,23.6215634 C10.985923,23.6186675 10.9895429,23.6172196 10.9924389,23.6143237 L24.0470071,10.5600804 C25.317604,9.28951512 25.317604,7.22258421 24.0473691,5.95238095 Z M23.5355104,6.46422689 C24.43615,7.36520606 24.5128926,8.77984109 23.7708061,9.77167834 L20.2279767,6.22893703 C21.2202006,5.48686902 22.6348708,5.56360971 23.5355104,6.46422689 Z M21.7436431,11.8396952 L18.1599083,8.25604966 L18.671767,7.74420372 L22.2555017,11.3278493 L21.7436431,11.8396952 Z M6.79584929,23.2034714 C6.65430987,23.0619355 6.42553004,23.0619355 6.28399062,23.2034714 L6.00996161,23.4774936 L6.93449277,19.594125 L8.53522761,19.4163907 L8.32925337,21.2704747 C8.32780539,21.2842301 8.3328733,21.2968996 8.3328733,21.310293 C8.3328733,21.3240484 8.32780539,21.3363559 8.32925337,21.3501113 C8.33070134,21.3620568 8.33685523,21.3718304 8.33938918,21.3834139 C8.3437331,21.404409 8.34988699,21.4235941 8.35748885,21.4431413 C8.36690068,21.4666703 8.37812248,21.4880274 8.39187822,21.5086605 C8.40310002,21.5253118 8.41432182,21.5401531 8.42807757,21.5546325 C8.44545325,21.5730937 8.46427691,21.588659 8.48491053,21.6031384 C8.50120023,21.6143599 8.51676595,21.6248575 8.53486562,21.6335451 C8.55875719,21.6447666 8.58373473,21.6512823 8.60979826,21.6574361 C8.62355401,21.6606939 8.6347758,21.6682956 8.64889354,21.6701055 C8.66192531,21.6715535 8.67495707,21.6722774 8.68835083,21.6722774 C8.68835083,21.6722774 8.68871282,21.6722774 8.68871282,21.6722774 C8.68871282,21.6722774 8.68907481,21.6722774 8.68907481,21.6722774 L8.68943681,21.6722774 C8.68943681,21.6722774 8.6897988,21.6722774 8.6897988,21.6722774 C8.70283056,21.6722774 8.71622432,21.6715535 8.72925608,21.6701055 L10.5833863,21.4641364 L10.4056475,23.0648314 L6.52182028,23.9893396 L6.79584929,23.7153174 C6.93702672,23.5741435 6.93702672,23.3450073 6.79584929,23.2034714 Z M11.3388666,21.2201589 L19.439555,13.1193101 C19.5810944,12.9777742 19.5810944,12.749 19.439555,12.6074641 C19.2980156,12.4659282 19.0692358,12.4659282 18.9276963,12.6074641 L10.8270079,20.708313 L9.09921334,20.9001647 L9.29106985,19.1724132 L17.3924823,11.0719263 C17.5340217,10.9303904 17.5340217,10.7016163 17.3924823,10.5600804 C17.2509429,10.4185445 17.022163,10.4185445 16.8806236,10.5600804 L8.77921117,18.6605672 L7.62698616,18.7887097 L17.6480496,8.7678956 L21.2317844,12.3515411 L11.2107209,22.3723553 L11.3388666,21.2201589 Z M22.7673604,10.8160033 L19.1836257,7.23235779 L19.6958463,6.72014986 L23.2795811,10.3037954 L22.7673604,10.8160033 Z" id="Shape" fill="url(#linearGradient-1)" fill-rule="nonzero"></path>
    </g>
</svg>