<?xml version="1.0" encoding="UTF-8" standalone="no"?>
<svg width="30px" height="30px" viewBox="0 0 30 30" version="1.1" xmlns="http://www.w3.org/2000/svg" xmlns:xlink="http://www.w3.org/1999/xlink">
    <!-- Generator: Sketch 49 (51002) - http://www.bohemiancoding.com/sketch -->
    <title>gallery icon Button</title>
    <desc>Created with Sketch.</desc>
    <defs>
        <linearGradient x1="98.566203%" y1="50%" x2="0.97091763%" y2="50%" id="linearGradient-1">
            <stop stop-color="#C59C08" offset="0%"></stop>
            <stop stop-color="#DED81B" offset="51.6708815%"></stop>
            <stop stop-color="#C29F09" offset="100%"></stop>
        </linearGradient>
    </defs>
    <g id="gallery-icon-Button" stroke="none" stroke-width="1" fill="none" fill-rule="evenodd">
        <circle id="Oval" fill="url(#linearGradient-1)" fill-rule="nonzero" cx="12" cy="11" r="2"></circle>
        <path d="M27.4026718,17.637931 C26.5267176,16.8103448 25.4188931,16.2672414 24.2080153,16.112069 L24.2080153,6.64655172 C24.2080153,5.63793103 23.7958015,4.73275862 23.1517176,4.06034483 C22.4818702,3.38793103 21.5801527,3 20.5753817,3 L5.63263359,3 C4.6278626,3 3.72614504,3.4137931 3.05629771,4.06034483 C2.38645038,4.73275862 2,5.63793103 2,6.64655172 L2,18.5689655 L2,19.6810345 L2,22.0862069 C2,23.0948276 2.41221374,24 3.05629771,24.6724138 C3.72614504,25.3448276 4.6278626,25.7327586 5.63263359,25.7327586 L20.0858779,25.7327586 C21.0391221,26.5086207 22.2242366,27 23.5381679,27 C25.0582061,27 26.4236641,26.3793103 27.4026718,25.3965517 C28.3816794,24.4137931 29,23.0431034 29,21.5172414 C29,19.9913793 28.3816794,18.6206897 27.4026718,17.637931 Z M3.36545802,6.64655172 C3.36545802,6.02586207 3.6230916,5.45689655 4.03530534,5.06896552 C4.44751908,4.65517241 5.01431298,4.39655172 5.63263359,4.39655172 L20.5753817,4.39655172 C21.1937023,4.39655172 21.7604962,4.65517241 22.1727099,5.06896552 C22.5849237,5.48275862 22.8425573,6.05172414 22.8425573,6.67241379 L22.8425573,14.7413793 L19.0295802,10.9137931 C18.7719466,10.6551724 18.3339695,10.6293103 18.0505725,10.9137931 L12.3053435,16.7068966 L8.41507634,12.7758621 C8.15744275,12.5172414 7.71946565,12.4913793 7.4360687,12.7758621 L3.36545802,16.9137931 L3.36545802,6.64655172 Z M5.60687023,24.4137931 L5.60687023,24.362069 C4.98854962,24.362069 4.42175573,24.1034483 4.00954198,23.6896552 C3.6230916,23.2758621 3.36545802,22.7068966 3.36545802,22.0862069 L3.36545802,19.6810345 L3.36545802,18.8793103 L7.92557252,14.2758621 L11.8158397,18.1810345 C12.0734733,18.4396552 12.5114504,18.4396552 12.7948473,18.1810345 L18.5400763,12.387931 L22.3015267,16.1896552 C22.2242366,16.2155172 22.1469466,16.2413793 22.0696565,16.2672414 C21.9666031,16.2931034 21.8635496,16.3189655 21.7347328,16.3706897 C21.6316794,16.3965517 21.528626,16.4482759 21.4255725,16.4741379 C21.3482824,16.5 21.2967557,16.5258621 21.2194656,16.5775862 C21.1164122,16.6293103 21.0391221,16.6551724 20.9618321,16.7068966 C20.8330153,16.7844828 20.7041985,16.862069 20.5753817,16.9396552 C20.4980916,16.9913793 20.4465649,17.0172414 20.3692748,17.0689655 C20.3177481,17.0948276 20.2919847,17.1206897 20.240458,17.1465517 C20.0085878,17.3017241 19.8024809,17.4827586 19.6221374,17.6896552 C18.6431298,18.6724138 18.0248092,20.0431034 18.0248092,21.5689655 C18.0248092,21.9568966 18.0763359,22.3189655 18.153626,22.7068966 C18.1793893,22.8103448 18.2051527,22.887931 18.230916,22.9913793 C18.3082061,23.25 18.3854962,23.5086207 18.4885496,23.7672414 L18.4885496,23.7931034 C18.5916031,24 18.6946565,24.2327586 18.8234733,24.4137931 L5.60687023,24.4137931 Z M26.3979008,24.4137931 C25.6507634,25.1637931 24.6459924,25.6034483 23.5124046,25.6034483 C22.4303435,25.6034483 21.4255725,25.1637931 20.7041985,24.4655172 C20.601145,24.362069 20.4980916,24.2327586 20.3950382,24.1293103 C20.3177481,24.0517241 20.240458,23.9482759 20.1631679,23.8706897 C20.0601145,23.7413793 19.9828244,23.5862069 19.9055344,23.4310345 C19.8540076,23.3275862 19.8024809,23.25 19.7509542,23.1465517 C19.6994275,23.0172414 19.6479008,22.862069 19.6221374,22.7068966 C19.596374,22.6034483 19.5448473,22.4741379 19.519084,22.3706897 C19.4675573,22.112069 19.4417939,21.8275862 19.4417939,21.5431034 C19.4417939,20.4051724 19.9055344,19.3965517 20.6269084,18.6465517 C21.3482824,17.8965517 22.3788168,17.4568966 23.5124046,17.4568966 C24.6459924,17.4568966 25.6507634,17.9224138 26.3979008,18.6465517 C27.1450382,19.3965517 27.5830153,20.4051724 27.5830153,21.5431034 C27.5830153,22.6551724 27.1192748,23.6637931 26.3979008,24.4137931 Z" id="Shape" fill="url(#linearGradient-1)" fill-rule="nonzero"></path>
        <path d="M24.0367232,18.209607 C23.980226,18.1572052 23.8954802,18.1048035 23.7824859,18.0524017 C23.6977401,18.0262009 23.6129944,18 23.5282486,18 C23.5,18 23.5,18 23.5,18 C23.4717514,18 23.4717514,18 23.4717514,18 C23.3870056,18 23.3022599,18.0262009 23.2175141,18.0524017 C23.1327684,18.0786026 23.0480226,18.1310044 22.9632768,18.209607 L21.2118644,19.8340611 C20.9293785,20.0960699 20.9293785,20.5414847 21.2118644,20.8296943 C21.4943503,21.0917031 21.9745763,21.0917031 22.2853107,20.8296943 L22.7372881,20.4104803 L22.7372881,23.2925764 C22.7372881,23.6855895 23.0762712,24 23.5,24 C23.9237288,24 24.2627119,23.6855895 24.2627119,23.2925764 L24.2627119,20.4104803 L24.7146893,20.8296943 C24.9971751,21.0917031 25.4774011,21.0917031 25.7881356,20.8296943 C26.0706215,20.5676856 26.0706215,20.1222707 25.7881356,19.8340611 L24.0367232,18.209607 Z" id="Shape" fill="url(#linearGradient-1)" fill-rule="nonzero"></path>
    </g>
</svg>