<?xml version="1.0" encoding="UTF-8" standalone="no"?>
<svg width="24px" height="24px" viewBox="0 0 24 24" version="1.1" xmlns="http://www.w3.org/2000/svg" xmlns:xlink="http://www.w3.org/1999/xlink">
    <!-- Generator: Sketch 49 (51002) - http://www.bohemiancoding.com/sketch -->
    <title>Limes</title>
    <desc>Created with Sketch.</desc>
    <defs></defs>
    <g id="Limes" stroke="none" stroke-width="1" fill="none" fill-rule="evenodd">
        <g id="lime" transform="translate(2.000000, 2.000000)" fill-rule="nonzero">
            <circle id="Oval" fill="#00447D" cx="10" cy="10" r="10"></circle>
            <path d="M10.5834375,19.9826172 C15.8346875,19.6804687 20,15.3269531 20,10 C20,9.65644531 19.9826172,9.31691406 19.9488281,8.98222656 L13.4966406,2.53003906 L13.4383203,6.28574219 L5.67011719,15.069375 L10.5834375,19.9826172 Z" id="Shape" fill="#062964"></path>
            <path d="M13.0132031,2.18054687 C13.0132031,2.18054687 14.1160156,2.64628906 14.2179687,4.24824219 C14.32,5.85039063 13.2850391,6.45273438 13.2850391,6.45273438 C13.2850391,6.45273438 12.1820703,5.98699219 12.0801953,4.385 C11.9781641,2.7828125 13.0132031,2.18054687 13.0132031,2.18054687 Z" id="Shape" fill="#72BD39"></path>
            <path d="M14.2179688,4.24820313 C14.1160156,2.64617188 13.0132031,2.18046875 13.0132031,2.18046875 C13.0132031,2.18046875 13.0066016,2.184375 12.995625,2.19152344 L13.2666016,6.44425781 C13.278125,6.44976563 13.285,6.45273438 13.285,6.45273438 C13.285,6.45273438 14.32,5.85035156 14.2179688,4.24820313 Z" id="Shape" fill="#51A448"></path>
            <path d="M12.6810938,13.4509766 C14.5103906,11.6210156 15.1063281,9.16566406 14.2193359,7.58476562 C14.246875,7.56382812 14.2738672,7.54148437 14.2990625,7.51636719 C14.5968359,7.21839844 14.5968359,6.73535156 14.2990625,6.43730469 C14.0012109,6.13933594 13.5182422,6.13933594 13.2204688,6.43730469 C13.1953516,6.46242187 13.1730078,6.48941406 13.1521094,6.51703125 C11.5717188,5.62976562 9.11714844,6.2259375 7.28808594,8.05574219 C5.45878906,9.885625 4.86285156,12.3408594 5.74984375,13.9217969 C5.72238281,13.9428125 5.69535156,13.9650391 5.67011719,13.9901953 C5.37234375,14.2881641 5.37234375,14.7712891 5.67011719,15.0691016 C5.96804688,15.3670703 6.45085938,15.3670703 6.74871094,15.0691016 C6.77390625,15.0438672 6.79617188,15.0169922 6.81707031,14.989375 C8.3975,15.8768359 10.8519922,15.2807422 12.6810938,13.4509766 Z" id="Shape" fill="#F3D64E"></path>
            <path d="M14.219375,7.58484375 C14.2469141,7.56390625 14.2739063,7.5415625 14.2991016,7.51644531 C14.596875,7.21847656 14.596875,6.73542969 14.2991016,6.43738281 C14.2960156,6.43429687 14.2926563,6.43171875 14.2894531,6.42871094 L5.64964844,15.0466016 C5.65660156,15.0541406 5.66285156,15.0620312 5.67019531,15.0692969 C5.968125,15.3672656 6.4509375,15.3672656 6.74878906,15.0692969 C6.77398438,15.0440625 6.79625,15.0171875 6.81714844,14.9895703 C8.39753906,15.8768359 10.8521094,15.2806641 12.6811719,13.4508984 C14.5104297,11.6210156 15.1063281,9.16574219 14.219375,7.58484375 Z" id="Shape" fill="#EEBB46"></path>
        </g>
    </g>
</svg>