<?xml version="1.0" encoding="UTF-8" standalone="no"?>
<svg width="136px" height="136px" viewBox="0 0 136 136" version="1.1" xmlns="http://www.w3.org/2000/svg" xmlns:xlink="http://www.w3.org/1999/xlink">
    <!-- Generator: Sketch 49 (51002) - http://www.bohemiancoding.com/sketch -->
    <title>media placeholder</title>
    <desc>Created with Sketch.</desc>
    <defs></defs>
    <g id="media-placeholder" stroke="none" stroke-width="1" fill="none" fill-rule="evenodd">
        <g id="picture" transform="translate(9.000000, 12.000000)" fill="#FFFFFF" fill-rule="nonzero">
            <path d="M31,52 C38.1687915,52 44,46.617346 44,40.0021548 C44,33.382654 38.1687915,28 31,28 C23.8312085,28 18,33.382654 18,40 C18,46.617346 23.8312085,52 31,52 Z M31,32.3095708 C35.5940025,32.3095708 39.3312983,35.7615371 39.3312983,40 C39.3312983,44.2384629 35.5940025,47.6904292 31,47.6904292 C26.4059975,47.6904292 22.6687017,44.2406177 22.6687017,40.0021548 C22.6687017,35.7636919 26.4059975,32.3095708 31,32.3095708 Z" id="Shape"></path>
            <path d="M0,0 L0,85.3846154 L0,111 L118,111 L118,85.3846154 L118,0 L0,0 Z M4.72,4.26923077 L113.28,4.26923077 L113.28,61.3210962 L88.91536,41.1190962 C88.4528,40.737 87.84392,40.5470192 87.21616,40.5598269 C86.59076,40.5854423 86.00076,40.8351923 85.57832,41.2535769 L62.46448,64.1515962 L51.271,54.0271154 C50.38836,53.2309038 48.97708,53.1903462 48.04252,53.9331923 L8.54792,85.3846154 L4.72,85.3846154 L4.72,4.26923077 Z M113.28,106.730769 L4.72,106.730769 L4.72,89.6538462 L113.28,89.6538462 L113.28,106.730769 Z M15.69164,85.3846154 L49.49628,58.4649808 L73.809,80.4536538 C74.73176,81.2882885 76.22328,81.2882885 77.14604,80.4536538 C78.0688,79.6190192 78.0688,78.2699423 77.14604,77.4353077 L65.80152,67.1742115 L87.46868,45.7127885 L113.28,67.1123077 L113.28,85.3846154 L15.69164,85.3846154 Z" id="Shape"></path>
        </g>
    </g>
</svg>