<?xml version="1.0" encoding="UTF-8" standalone="no"?>
<svg width="130px" height="26px" viewBox="0 0 130 26" version="1.1" xmlns="http://www.w3.org/2000/svg" xmlns:xlink="http://www.w3.org/1999/xlink">
    <!-- Generator: Sketch 49 (51002) - http://www.bohemiancoding.com/sketch -->
    <title>Personal Wallet Button</title>
    <desc>Created with Sketch.</desc>
    <defs>
        <linearGradient x1="98.566203%" y1="50%" x2="0.97091763%" y2="50%" id="linearGradient-1">
            <stop stop-color="#C59C08" offset="0%"></stop>
            <stop stop-color="#DED81B" offset="51.6708815%"></stop>
            <stop stop-color="#C29F09" offset="100%"></stop>
        </linearGradient>
    </defs>
    <g id="Icon-Library" stroke="none" stroke-width="1" fill="none" fill-rule="evenodd">
        <g id="Artboard-Copy-3" transform="translate(-11.000000, -8.000000)">
            <g id="Personal-Wallet-Button" transform="translate(11.000000, 8.000000)">
                <g id="Group" transform="translate(21.000000, 7.000000)">
                    <g id="Group-Copy-2" fill="#FFFFFF" font-family="SFProText-MediumItalic, SF Pro Text" font-size="10" font-style="italic" font-weight="500">
                        <text id="Personal-wallet">
                            <tspan x="0.771484375" y="10">Personal wallet</tspan>
                        </text>
                    </g>
                    <g id="wallet-filled-money-tool" transform="translate(80.000000, 2.000000)" fill="url(#linearGradient-1)" fill-rule="nonzero">
                        <path d="M1.8684624,1.46855219 L5.05589226,0.598518519 L4.88709315,0.257328844 C4.77665544,0.0355555556 4.50729517,-0.056026936 4.28552189,0.0544107744 L1.43209877,1.46855219 L1.8684624,1.46855219 Z" id="Shape"></path>
                        <path d="M6.04534231,0.62365881 C6.00584512,0.62365881 5.96632997,0.629046016 5.92682379,0.639820426 L5.17801122,0.844534231 L2.89113356,1.46855219 L5.48686869,1.46855219 L6.61818182,1.46855219 L6.47811448,0.954971942 C6.42424242,0.754747475 6.24287318,0.62365881 6.04534231,0.62365881 Z" id="Shape"></path>
                        <path d="M7.08597082,1.78280584 L6.98361392,1.78280584 L6.84444444,1.78280584 L6.70527497,1.78280584 L5.64309764,1.78280584 L1.74006734,1.78280584 L1.22828283,1.78280584 L0.797306397,1.78280584 L0.717396184,1.78280584 L0.44983165,1.78280584 C0.307968575,1.78280584 0.181369248,1.84835017 0.0987654321,1.95160494 C0.0610549944,1.99919192 0.0323232323,2.05396184 0.0161616162,2.11411897 C0.00628507295,2.15182941 0,2.19133558 0,2.23173962 L0,2.28561167 L0,2.79739618 L0,7.23375982 C0,7.48158025 0.201122334,7.6826936 0.448933782,7.6826936 L7.08507295,7.6826936 C7.33289338,7.6826936 7.53400673,7.48158025 7.53400673,7.23375982 L7.53400673,5.98123457 L4.87003367,5.98123457 C4.44893378,5.98123457 4.10684624,5.63914703 4.10684624,5.21804714 L4.10684624,4.80682379 L4.10684624,4.66765432 L4.10684624,4.52848485 L4.10684624,4.21961841 C4.10684624,4.01310887 4.18944108,3.82546352 4.32323232,3.68808979 C4.44175084,3.56597082 4.6006734,3.483367 4.77845118,3.46271605 C4.80808081,3.45913356 4.83860831,3.45732884 4.8691358,3.45732884 L7.16049383,3.45732884 L7.2996633,3.45732884 L7.43883277,3.45732884 L7.53400673,3.45732884 L7.53400673,2.23173962 C7.5349046,1.98392817 7.33378227,1.78280584 7.08597082,1.78280584 Z" id="Shape"></path>
                        <path d="M7.84915825,3.88650954 C7.80426487,3.84520763 7.75129068,3.81378227 7.69203143,3.79313131 C7.6462312,3.77787654 7.59775533,3.76889787 7.54657688,3.76889787 L7.5349046,3.76889787 L7.52592593,3.76889787 L7.38675645,3.76889787 L6.88484848,3.76889787 L4.87003367,3.76889787 C4.62221324,3.76889787 4.42109989,3.97001122 4.42109989,4.21783165 L4.42109989,4.44139169 L4.42109989,4.58056117 L4.42109989,4.71973064 L4.42109989,5.21714927 C4.42109989,5.46496072 4.62221324,5.66608305 4.87003367,5.66608305 L7.5349046,5.66608305 L7.54657688,5.66608305 C7.59775533,5.66608305 7.64624018,5.65710438 7.69203143,5.64184063 C7.75129068,5.62208754 7.80426487,5.58976431 7.84915825,5.5484624 C7.93894501,5.46675645 7.99551066,5.34823793 7.99551066,5.21715825 L7.99551066,4.21783165 C7.99551066,4.08673401 7.93894501,3.96820651 7.84915825,3.88650954 Z M5.80740741,4.80682379 C5.80740741,4.93072952 5.70684624,5.03129068 5.58294052,5.03129068 L5.4338945,5.03129068 C5.30998878,5.03129068 5.20942761,4.93072952 5.20942761,4.80682379 L5.20942761,4.65777778 C5.20942761,4.58594837 5.24264871,4.5221908 5.2956229,4.48178676 C5.3342312,4.45215713 5.38182716,4.43331089 5.4338945,4.43331089 L5.47160494,4.43331089 L5.58294052,4.43331089 C5.70684624,4.43331089 5.80740741,4.53386308 5.80740741,4.65777778 L5.80740741,4.80682379 Z" id="Shape"></path>
                    </g>
                </g>
                <rect id="Rectangle-Copy" fill="#FFFFFF" opacity="0.25" x="0" y="0" width="130" height="26" rx="2"></rect>
            </g>
        </g>
    </g>
</svg>