<?xml version="1.0" encoding="UTF-8" standalone="no"?>
<svg width="30px" height="30px" viewBox="0 0 30 30" version="1.1" xmlns="http://www.w3.org/2000/svg" xmlns:xlink="http://www.w3.org/1999/xlink">
    <!-- Generator: Sketch 49 (51002) - http://www.bohemiancoding.com/sketch -->
    <title>Supply Chain Icon</title>
    <desc>Created with Sketch.</desc>
    <defs>
        <circle id="path-1" cx="14" cy="14" r="14"></circle>
    </defs>
    <g id="Supply-Chain-Icon" stroke="none" stroke-width="1" fill="none" fill-rule="evenodd">
        <g id="Group-3" transform="translate(1.000000, 1.000000)">
            <g id="unnamed">
                <g id="Group-2">
                    <mask id="mask-2" fill="white">
                        <use xlink:href="#path-1"></use>
                    </mask>
                    <use id="Mask" fill="#091141" xlink:href="#path-1"></use>
                </g>
            </g>
            <g id="connections" transform="translate(8.000000, 6.000000)" fill="#F3C736" fill-rule="nonzero">
                <path d="M7.91664211,11.6666667 C6.76787054,11.6666667 5.83333333,12.601253 5.83333333,13.7499754 C5.83333333,14.8986979 6.76787054,15.8333333 7.91664211,15.8333333 C9.06541368,15.8333333 10,14.898747 10,13.7499754 C10,12.6012039 9.06541368,11.6666667 7.91664211,11.6666667 Z M7.91664211,15.244017 C7.09290561,15.244017 6.42269882,14.5738102 6.42269882,13.7500246 C6.42269882,12.9262389 7.09290561,12.2560813 7.91664211,12.2560813 C8.74042772,12.2560813 9.41063451,12.9262881 9.41063451,13.7500246 C9.41063451,14.5737611 8.74047684,15.244017 7.91664211,15.244017 Z" id="Shape"></path>
                <path d="M3.6701112,5.83333333 C3.75626841,5.83333333 3.84248175,5.80213477 3.90820819,5.73979087 L5.91654117,3.83486816 C6.34917945,4.25514373 6.95233605,4.51676448 7.61908621,4.51676448 C8.93193124,4.51676448 10,3.5036629 10,2.25843548 C10,1.01320805 8.93187512,0 7.61903008,0 C6.30618504,0 5.23817242,1.01310157 5.23817242,2.25838224 C5.23817242,2.63904734 5.33836174,2.99777762 5.5144929,3.31274471 L3.43201421,5.2879973 C3.30044906,5.41273832 3.30044906,5.61499661 3.43195808,5.73973763 C3.49774065,5.80213477 3.58389786,5.83333333 3.6701112,5.83333333 Z M7.61903008,0.638878494 C8.56047299,0.638878494 9.32640217,1.36538982 9.32640217,2.25838224 C9.32640217,3.15137465 8.56047299,3.87783274 7.61903008,3.87783274 C6.67764329,3.87783274 5.91171412,3.15132141 5.91171412,2.25838224 C5.91171412,1.36544306 6.67764329,0.638878494 7.61903008,0.638878494 Z" id="Shape"></path>
                <path d="M5.73768662,11.9318286 L3.8126954,9.97007836 C4.30521097,9.53820817 4.61798666,8.89908467 4.61798666,8.18651272 C4.61798666,6.88896054 3.58222337,5.83333333 2.30902055,5.83333333 C1.03581772,5.83333333 0,6.88896054 0,8.18651272 C0,9.48406491 1.03587216,10.5396921 2.30902055,10.5396921 C2.64318866,10.5396921 2.96070008,10.4664101 3.24767422,10.3356563 L5.27581719,12.402531 C5.33955899,12.4674919 5.42316906,12.5 5.50672469,12.5 C5.59028033,12.5 5.6738904,12.4674919 5.73763219,12.402531 C5.86522464,12.2725539 5.86522464,12.0618057 5.73768662,11.9318286 Z M0.53030303,8.05555556 C0.53030303,7.13655756 1.24399849,6.38888889 2.12123827,6.38888889 C2.99842575,6.38888889 3.71212121,7.13655756 3.71212121,8.05555556 C3.71212121,8.97455355 2.99847805,9.72222222 2.12123827,9.72222222 C1.24399849,9.72222222 0.53030303,8.97455355 0.53030303,8.05555556 Z" id="Shape"></path>
            </g>
        </g>
    </g>
</svg>