<?xml version="1.0" encoding="UTF-8" standalone="no"?>
<svg width="24px" height="24px" viewBox="0 0 24 24" version="1.1" xmlns="http://www.w3.org/2000/svg" xmlns:xlink="http://www.w3.org/1999/xlink">
    <!-- Generator: Sketch 49 (51002) - http://www.bohemiancoding.com/sketch -->
    <title>thing</title>
    <desc>Created with Sketch.</desc>
    <defs></defs>
    <g id="thing" stroke="none" stroke-width="1" fill="none" fill-rule="evenodd">
        <g id="info" transform="translate(2.000000, 2.000000)" fill-rule="nonzero">
            <path d="M19.9661167,9.9832998 C19.9661167,4.46933602 15.4965392,0.000120724346 9.98321932,0.000120724346 C4.46961771,0.000120724346 0,4.46933602 0,9.9832998 C0,15.4964185 4.46961771,19.965996 9.98321932,19.965996 C15.4965392,19.965996 19.9661167,15.4964185 19.9661167,9.9832998 Z" id="Shape" fill="#25B7D3"></path>
            <g id="Group" transform="translate(7.002012, 2.776660)" fill="#FFFFFF">
                <path d="M5.68406439,11.6923541 C5.6282495,11.6105835 5.521167,11.5814889 5.4317505,11.6238632 C4.44253521,12.0921529 3.31979879,12.5872435 3.09943662,12.630503 C3.0938833,12.6255533 3.08507042,12.616499 3.07352113,12.6008451 C3.04366197,12.5604024 3.02913481,12.5075654 3.02913481,12.4392757 C3.02913481,11.8797183 3.45146881,10.177505 4.28434608,7.38016097 C4.9865996,5.02981891 5.06780684,4.54317907 5.06780684,4.38160966 C5.06780684,4.13219316 4.97231388,3.92144869 4.7915493,3.77211268 C4.61983903,3.63050302 4.37991952,3.55875252 4.07851107,3.55875252 C3.57714286,3.55875252 2.99605634,3.74909457 2.30201207,4.1406841 C1.62945674,4.52028169 0.879396378,5.16321932 0.0727967807,6.05162978 C0.00965794769,6.12120724 0.0030583501,6.22523139 0.0569014085,6.30225352 C0.11082495,6.3793159 0.21082495,6.40865191 0.29778672,6.37323944 C0.580965795,6.257666 2.00410463,5.67468813 2.2115493,5.54438632 C2.38140845,5.43790744 2.5284507,5.38386318 2.64861167,5.38386318 C2.65291751,5.38386318 2.65661972,5.38402414 2.65971831,5.38426559 C2.661167,5.3922334 2.66253521,5.40438632 2.66253521,5.42181087 C2.66253521,5.54442656 2.63730382,5.68957746 2.58784708,5.85251509 C1.37513078,9.78173038 0.785633803,12.1904628 0.785633803,13.2164588 C0.785633803,13.5785513 0.886277666,13.8700604 1.08470825,14.0827767 C1.28692153,14.2997988 1.55967807,14.4098189 1.89541247,14.4098189 C2.2531992,14.4098189 2.68865191,14.2603622 3.2265996,13.9529175 C3.74716298,13.6554527 4.54169014,13.0010865 5.65569416,11.9522334 C5.72784708,11.8843461 5.73987928,11.7741247 5.68406439,11.6923541 Z" id="Shape"></path>
                <path d="M5.64515091,0.308732394 C5.44696177,0.105875252 5.19336016,0.00301810865 4.89146881,0.00301810865 C4.51561368,0.00301810865 4.1882495,0.151549296 3.91859155,0.444507042 C3.65323944,0.732635815 3.51867203,1.08619718 3.51867203,1.49533199 C3.51867203,1.81859155 3.61778672,2.08647887 3.81323944,2.29150905 C4.01130785,2.49963783 4.26148893,2.60515091 4.55674044,2.60515091 C4.91722334,2.60515091 5.2428169,2.44828974 5.52442656,2.13891348 C5.80112676,1.83496982 5.94144869,1.47762575 5.94144869,1.07682093 C5.94148893,0.768812877 5.84181087,0.510422535 5.64515091,0.308732394 Z" id="Shape"></path>
            </g>
        </g>
    </g>
</svg>