<?xml version="1.0" encoding="utf-8"?>
<!-- Generator: Adobe Illustrator 21.0.0, SVG Export Plug-In . SVG Version: 6.00 Build 0)  -->
<svg version="1.1" id="Layer_1" xmlns="http://www.w3.org/2000/svg" xmlns:xlink="http://www.w3.org/1999/xlink" x="0px" y="0px"
	 viewBox="0 0 375 667" style="enable-background:new 0 0 375 667;" xml:space="preserve">
<style type="text/css">
	.st0{fill:#091141;}
	.st1{fill-opacity:0;}
	.st2{fill:#FFFFFF;}
	.st3{font-family:'Montserrat-Regular';}
	.st4{font-size:12px;}
	.st5{font-family:'DIN-Regular';}
	.st6{font-size:17px;}
	.st7{font-size:42px;}
	.st8{fill:#F9F9F9;}
</style>
<path id="Rectangle-2" class="st0" d="M2.2,0h370.7c1.2,0,2.2,0.9,2.2,2.1v662.8c0,1.2-1,2.1-2.2,2.1H2.2C1,667,0,666.1,0,664.9V2.1
	C0,0.9,1,0,2.2,0z"/>
<title>Pin Screen 2 Copy 2</title>
<desc>Created with Sketch.</desc>
<g id="UI-Bars-_x2F_-Status-Bars-_x2F_-White-_x2F_-Base-Copy">
	<rect id="Background" y="0" class="st1" width="375" height="20"/>
	<text transform="matrix(1 0 0 1 26 15.5)" class="st2 st3 st4">GS</text>
	<text transform="matrix(1 0 0 1 165.316 15.5)" class="st2 st3 st4">9:41 AM</text>
	<path id="Wifi" class="st2" d="M54.1,12.4L52,14.5l-2.2-2.1c0.5-0.6,1.3-0.9,2.1-0.9C52.9,11.5,53.6,11.8,54.1,12.4z M56.3,10.3
		l-1.1,1.1c-0.8-0.9-2-1.4-3.2-1.4c-1.3,0-2.4,0.5-3.2,1.4l-1.1-1.1c1.1-1.1,2.6-1.8,4.3-1.8C53.7,8.5,55.2,9.2,56.3,10.3z
		 M58.5,8.2l-1.1,1.1C56.1,7.9,54.1,7,52,7c-2.1,0-4,0.9-5.4,2.2l-1.1-1.1c1.6-1.7,3.9-2.7,6.5-2.7C54.6,5.5,56.9,6.5,58.5,8.2z"/>
	<path id="Rectangle" class="st2" d="M19,5.5C19,5.2,19.2,5,19.5,5H21c0.3,0,0.5,0.2,0.5,0.5V14c0,0.3-0.2,0.5-0.5,0.5h-1.5
		c-0.3,0-0.5-0.2-0.5-0.5V5.5z M15,8c0-0.3,0.2-0.5,0.5-0.5H17c0.3,0,0.5,0.2,0.5,0.5v6c0,0.3-0.2,0.5-0.5,0.5h-1.5
		c-0.3,0-0.5-0.2-0.5-0.5V8z M11,10c0-0.3,0.2-0.5,0.5-0.5H13c0.3,0,0.5,0.2,0.5,0.5v4c0,0.3-0.2,0.5-0.5,0.5h-1.5
		c-0.3,0-0.5-0.2-0.5-0.5V10z M7,12c0-0.3,0.2-0.5,0.5-0.5H9c0.3,0,0.5,0.2,0.5,0.5v2c0,0.3-0.2,0.5-0.5,0.5H7.5
		C7.2,14.5,7,14.3,7,14V12z M346,5"/>
	<g id="Battery" transform="translate(310.000000, 3.000000)">
		<g transform="translate(36.000000, 2.000000)">
			<path id="Combined-Shape" class="st2" d="M23,3.5c0.9,0.2,1.5,1,1.5,1.9S23.9,7.2,23,7.4V3.5z"/>
			<path id="Rectangle_1_" class="st2" d="M3,2h16c0.6,0,1,0.4,1,1v4.5c0,0.6-0.4,1-1,1H3c-0.6,0-1-0.4-1-1V3C2,2.4,2.4,2,3,2z"/>
		</g>
		<text transform="matrix(1 0 0 1 2.484 12.5)" class="st2 st3 st4">100%</text>
	</g>
</g>
<text transform="matrix(1 0 0 1 58 255)" class="st2 st5 st6">Herc Amount</text>
<text transform="matrix(1 0 0 1 122.6667 313.5001)" class="st2 st5 st7">10,000</text>
<text transform="matrix(1 0 0 1 151.3333 189)" class="st2 st5 st4">Logan Golema</text>
<g id="man-user" transform="translate(69.000000, 275.000000)">
	<path id="Shape_6_" class="st8" d="M119-141.3c9.4,0,17.1-8.6,17.1-19.2c0-10.6-2.5-19.2-17.1-19.2s-17.1,8.6-17.1,19.2
		C101.9-149.9,109.6-141.3,119-141.3z"/>
	<path id="Shape_5_" class="st8" d="M87-114.7C87-116.7,87-115.3,87-114.7z"/>
	<path id="Shape_4_" class="st8" d="M151-110.4C151-110.7,151-112.6,151-110.4z"/>
	<path id="Shape_3_" class="st8" d="M151-114.4c-0.3-18.4-2.9-23.6-22.7-26.9c0,0-2.8,3.3-9.3,3.3c-6.5,0-9.3-3.3-9.3-3.3
		c-19.6,3.3-22.3,8.4-22.7,26.3c0,1.5,0,1.5,0,1.4c0,0.3,0,0.9,0,1.9c0,0,4.7,8.8,32,8.8c27.3,0,32-8.8,32-8.8c0-0.7,0-1.1,0-1.4
		C151-113.1,151-113.3,151-114.4z"/>
</g>
<g>
	<circle id="path-1" class="st2" cx="264" cy="299.5" r="14"/>
</g>
<g id="Group-3">
	<g id="unnamed" transform="translate(4.000000, 0.000000)">
		<g id="Group-2">
			<g id="Mask">
				<circle id="path-1_1_" class="st0" cx="260" cy="299.5" r="14"/>
			</g>
		</g>
	</g>
	
		<image style="overflow:visible;enable-background:new    ;" width="942" height="388" id="_x32_" xlink:href="A9E7CBEC.png"  transform="matrix(3.821656e-02 0 0 3.865979e-02 246 292.5001)">
	</image>
</g>
</svg>
