<?xml version="1.0" encoding="UTF-8" standalone="no"?>
<svg width="375px" height="667px" viewBox="0 0 375 667" version="1.1" xmlns="http://www.w3.org/2000/svg" xmlns:xlink="http://www.w3.org/1999/xlink" style="background: #FAFAFA;">
    <!-- Generator: Sketch 49 (51002) - http://www.bohemiancoding.com/sketch -->
    <title>Screen 4 Copy 2</title>
    <desc>Created with Sketch.</desc>
    <defs>
        <rect id="path-1" x="102" y="496" width="171" height="34" rx="2"></rect>
        <circle id="path-2" cx="14" cy="14" r="14"></circle>
    </defs>
    <g id="Screen-4-Copy-2" stroke="none" stroke-width="1" fill="none" fill-rule="evenodd">
        <g id="UI-Bars-/-Status-Bars-/-White-/-Base">
            <rect id="Background" fill-opacity="0" fill="#000000" fill-rule="evenodd" x="0" y="0" width="375" height="20"></rect>
            <text id="GS" font-family="Montserrat-Regular, Montserrat" font-size="12" font-weight="normal" fill="#000000">
                <tspan x="26" y="15.5">GS</tspan>
            </text>
            <text id="Time" font-family="Montserrat-Regular, Montserrat" font-size="12" font-weight="normal" fill="#000000">
                <tspan x="165.316" y="15.5">9:41 AM</tspan>
            </text>
            <path d="M54.1444208,12.4385043 L52.0225391,14.5 L49.8601652,12.4053177 C50.3778594,11.8314341 51.1390073,11.4689119 51.987563,11.4689119 C52.8523616,11.4689119 53.626374,11.8454456 54.1444208,12.4385043 Z M56.3234964,10.3214425 L55.2346215,11.3793293 C54.4356305,10.518235 53.2768836,9.97668394 51.987563,9.97668394 C50.713648,9.97668394 49.567205,10.5053708 48.7692987,11.3486 L47.6792698,10.2926936 C48.7566264,9.17975893 50.2882723,8.48445596 51.987563,8.48445596 C53.7014387,8.48445596 55.2447794,9.19174563 56.3234964,10.3214425 Z M58.5,8.20687933 L57.4118698,9.26404272 C56.0538809,7.86552609 54.1260026,6.99222798 51.987563,6.99222798 C49.8628921,6.99222798 47.9460798,7.85431655 46.5895579,9.23709441 L45.5,8.18164431 C47.1355496,6.52895605 49.4375103,5.5 51.987563,5.5 C54.5505699,5.5 56.8629578,6.53943672 58.5,8.20687933 Z" id="Wifi" fill="#000000" fill-rule="evenodd"></path>
            <path d="M19,5.49738558 C19,5.22268711 19.2307129,5 19.5059123,5 L20.9940877,5 C21.2734953,5 21.5,5.21627015 21.5,5.49738558 L21.5,14.0026144 C21.5,14.2773129 21.2692871,14.5 20.9940877,14.5 L19.5059123,14.5 C19.2265047,14.5 19,14.2837299 19,14.0026144 L19,5.49738558 Z M15,8.00342274 C15,7.72539004 15.2307129,7.5 15.5059123,7.5 L16.9940877,7.5 C17.2734953,7.5 17.5,7.73290253 17.5,8.00342274 L17.5,13.9965773 C17.5,14.27461 17.2692871,14.5 16.9940877,14.5 L15.5059123,14.5 C15.2265047,14.5 15,14.2670975 15,13.9965773 L15,8.00342274 Z M11,9.99769878 C11,9.72282734 11.2307129,9.5 11.5059123,9.5 L12.9940877,9.5 C13.2734953,9.5 13.5,9.71484375 13.5,9.99769878 L13.5,14.0023012 C13.5,14.2771727 13.2692871,14.5 12.9940877,14.5 L11.5059123,14.5 C11.2265047,14.5 11,14.2851562 11,14.0023012 L11,9.99769878 Z M7,11.995389 C7,11.7217932 7.23071289,11.5 7.5059123,11.5 L8.9940877,11.5 C9.27349535,11.5 9.5,11.7157526 9.5,11.995389 L9.5,14.004611 C9.5,14.2782068 9.26928711,14.5 8.9940877,14.5 L7.5059123,14.5 C7.22650465,14.5 7,14.2842474 7,14.004611 L7,11.995389 Z" id="Mobile-Signal" fill="#000000" fill-rule="evenodd"></path>
            <g id="Battery" stroke-width="1" fill-rule="evenodd" transform="translate(310.000000, 3.000000)">
                <g transform="translate(36.000000, 2.000000)">
                    <path d="" id="Rectangle" stroke="#000000"></path>
                    <path d="M23,3.5 C23.8626136,3.7220214 24.5,4.50507154 24.5,5.43699126 C24.5,6.36891097 23.8626136,7.15196112 23,7.37398251 L23,3.5 Z" id="Combined-Shape" fill="#000000"></path>
                    <rect id="Rectangle" fill="#021327" x="2" y="2" width="18" height="6.5" rx="1"></rect>
                </g>
                <text id="100%" font-family="Montserrat-Regular, Montserrat" font-size="12" font-weight="normal" fill="#000000">
                    <tspan x="2.484" y="12.5">100%</tspan>
                </text>
            </g>
        </g>
        <g id="Group-2" transform="translate(114.000000, 165.000000)"></g>
        <rect id="Rectangle-2-Copy-2" fill="#091141" transform="translate(188.000000, 394.500000) rotate(180.000000) translate(-188.000000, -394.500000) " x="15" y="75" width="346" height="639" rx="2"></rect>
        <path d="M43,47.2793561 C43,46.8814405 42.7121174,46.5587121 42.3571658,46.5587121 L26.3473797,46.5587121 C25.9923209,46.5587121 25.7045455,46.8814405 25.7045455,47.2793561 C25.7045455,47.6772716 25.9923209,48 26.3473797,48 L42.3571658,48 C42.7121174,48 43,47.6772716 43,47.2793561 Z" id="Shape" fill="#091141" fill-rule="nonzero" transform="translate(34.352273, 47.279356) rotate(180.000000) translate(-34.352273, -47.279356) "></path>
        <path d="M22.2845811,54.7644473 C22.0566548,55.035659 22.0566548,55.4754085 22.2845811,55.7466202 C22.3984471,55.8821681 22.5478049,55.95 22.6970656,55.95 C22.8463262,55.95 22.9956841,55.8821681 23.1095501,55.7466202 L29.6245098,47.9911009 C29.8524361,47.7198892 29.8524361,47.2801397 29.6245098,47.008928 L23.1095501,39.2534088 C22.8818182,38.9821971 22.5122158,38.9821971 22.2845811,39.2534088 C22.0566548,39.5246204 22.0566548,39.9643699 22.2845811,40.2355816 L28.3869591,47.4999566 L22.2845811,54.7644473 Z" id="Shape" fill="#091141" fill-rule="nonzero" transform="translate(25.954545, 47.500000) rotate(180.000000) translate(-25.954545, -47.500000) "></path>
        <g id="Group-Copy" transform="translate(48.000000, 101.000000)" font-family="DINPro-Bold, DINPro" font-size="20" font-weight="bold">
            <text id="Please-enter-new-IGV">
                <tspan x="0" y="21" fill="#FFFFFF">Please enter new </tspan>
                <tspan x="162.72" y="21" fill="#ECC41F">IGVC</tspan>
                <tspan x="205.58" y="21" fill="#FFFFFF"> params</tspan>
            </text>
        </g>
        <g id="Rectangle">
            <use fill="#FFFFFF" fill-rule="evenodd" xlink:href="#path-1"></use>
            <rect stroke="#F3C736" stroke-width="1" x="101.5" y="495.5" width="172" height="35" rx="2"></rect>
        </g>
        <text id="NEXT" font-family="DINPro-Medium, DINPro" font-size="14" font-weight="400" fill="#132C4A">
            <tspan x="169" y="518">NEXT</tspan>
        </text>
        <rect id="Rectangle" fill="#FFFFFF" x="173" y="216" width="171" height="34" rx="2"></rect>
        <text id="Asset-URL" font-family="DINPro-Medium, DINPro" font-size="14" font-weight="400" fill="#FFFFFF">
            <tspan x="31" y="238">Asset URL</tspan>
        </text>
        <rect id="Rectangle" fill="#FFFFFF" x="173" y="318" width="171" height="34" rx="2"></rect>
        <text id="Metric-2" font-family="DINPro-Medium, DINPro" font-size="14" font-weight="400" fill="#FFFFFF">
            <tspan x="31" y="340">Metric 2</tspan>
        </text>
        <rect id="Rectangle-Copy" fill="#FFFFFF" x="173" y="369" width="171" height="34" rx="2"></rect>
        <text id="Metric-3" font-family="DINPro-Medium, DINPro" font-size="14" font-weight="400" fill="#FFFFFF">
            <tspan x="31" y="390">Metric 3</tspan>
        </text>
        <rect id="Rectangle-Copy-2" fill="#FFFFFF" x="173" y="424" width="171" height="34" rx="2"></rect>
        <text id="Metric-4" font-family="DINPro-Medium, DINPro" font-size="14" font-weight="400" fill="#FFFFFF">
            <tspan x="31" y="445">Metric 4</tspan>
        </text>
        <rect id="Rectangle" fill="#FFFFFF" x="173" y="267" width="171" height="34" rx="2"></rect>
        <text id="Metric-1" font-family="DINPro-Medium, DINPro" font-size="14" font-weight="400" fill="#FFFFFF">
            <tspan x="31" y="289">Metric 1</tspan>
        </text>
        <rect id="Rectangle" fill="#FFFFFF" x="173" y="165" width="171" height="34" rx="2"></rect>
        <text id="Asset-Name" font-family="DINPro-Medium, DINPro" font-size="14" font-weight="400" fill="#FFFFFF">
            <tspan x="31" y="187">Asset Name  </tspan>
        </text>
        <text id="Asset-URL-Copy" font-family="DINPro-Regular, DINPro" font-size="14" font-weight="normal" fill="#132C4A">
            <tspan x="226" y="238">Asset URL</tspan>
        </text>
        <text id="Metric-2-Copy" font-family="DINPro-Regular, DINPro" font-size="14" font-weight="normal" fill="#132C4A">
            <tspan x="233" y="340">Metric 2</tspan>
        </text>
        <text id="Metric-3-Copy" font-family="DINPro-Regular, DINPro" font-size="14" font-weight="normal" fill="#132C4A">
            <tspan x="233" y="390">Metric 3</tspan>
        </text>
        <text id="Metric-4-Copy" font-family="DINPro-Regular, DINPro" font-size="14" font-weight="normal" fill="#132C4A">
            <tspan x="233" y="445">Metric 4</tspan>
        </text>
        <text id="Metric-1-Copy" font-family="DINPro-Regular, DINPro" font-size="14" font-weight="normal" fill="#132C4A">
            <tspan x="233" y="289">Metric 1</tspan>
        </text>
        <text id="Asset-Name" font-family="DINPro-Regular, DINPro" font-size="14" font-weight="normal" fill="#132C4A">
            <tspan x="217" y="187">Asset Name  </tspan>
        </text>
        <g id="Group-4" transform="translate(114.000000, 32.000000)">
            <text id="Create-New" font-family="DINPro-Bold, DINPro" font-size="20" font-weight="bold" fill="#091141">
                <tspan x="40" y="23">Create New</tspan>
            </text>
            <g id="Group">
                <g id="Group-3" transform="translate(0.000000, 1.000000)">
                    <g id="unnamed">
                        <g id="Group-2">
                            <mask id="mask-3" fill="white">
                                <use xlink:href="#path-2"></use>
                            </mask>
                            <use id="Mask" fill="#091141" xlink:href="#path-2"></use>
                        </g>
                    </g>
                </g>
                <g id="Group-3" transform="translate(7.000000, 0.000000)" fill="#F3C736" font-family="Montserrat-Regular, Montserrat" font-size="24" font-weight="normal">
                    <text id="+">
                        <tspan x="0" y="23">+</tspan>
                    </text>
                </g>
            </g>
        </g>
    </g>
</svg>